<?xml version="1.0" encoding="utf-8"?>
<!-- Generator: Adobe Illustrator 19.2.1, SVG Export Plug-In . SVG Version: 6.00 Build 0)  -->
<svg version="1.1" id="圖層_1" xmlns="http://www.w3.org/2000/svg" xmlns:xlink="http://www.w3.org/1999/xlink" x="0px" y="0px"
	 viewBox="0 0 855 226.8" style="enable-background:new 0 0 855 226.8;" xml:space="preserve">
<style type="text/css">
	.st0{fill:#7D6652;}
	.st1{clip-path:url(#SVGID_2_);}
	.st2{fill:#F5B39D;}
	.st3{fill:#FFEEB9;}
	.st4{fill:#DEBCD9;}
	.st5{fill:#F7BEB7;}
	.st6{fill:#BDE4F9;}
	.st7{fill:#FAD6C4;}
	.st8{fill:#FFF5C2;}
	.st9{fill:#FDEBDA;}
	.st10{fill:#CFE6BF;}
	.st11{fill:#FBD4AD;}
	.st12{fill:#FFF3A3;}
	.st13{fill:#FDE5B5;}
	.st14{fill:#DFC5DE;}
	.st15{fill:#FDE6C9;}
	.st16{fill:#FFF6E6;}
	.st17{fill:#D1D1D2;}
	.st18{fill:#C0E0C0;}
	.st19{fill:#F0938E;}
	.st20{fill:#D00E37;}
	.st21{fill:#E4C8A9;}
	.st22{fill:#FFFFFF;}
</style>
<g>
	<g>
		<path class="st0" d="M299.4,94.6l-5.1,4.1c-1.2-1.5-2.4-3.1-3.6-4.6c-1.2-1.5-2.4-3.1-3.6-4.6l-46,6.1c-0.3,0.5-0.8,0.9-1.3,1
			c-0.3,0.3-0.8,0.5-1.3,0.5c-0.9-0.2-1.5-1-2-2.6c-0.5-1.5-0.9-2.7-1-3.6l10.7-0.5c2.9-4.1,5.7-8.3,8.4-12.5
			c2.7-4.1,5.4-8.3,7.9-12.5c1.2,0.2,2.3,0.5,3.3,1c1.2,0.5,2.3,1.2,3.3,2c-0.9,1.5-3.4,4.9-7.7,10.2c-4.4,5.3-7.5,8.9-9.2,10.7
			l32.2-3.1c-1.4-1.7-2.9-3.4-4.6-5.1c-1.5-1.7-3.1-3.4-4.6-5.1l2-2c3.9,2.7,7.7,5.9,11.5,9.4C292.5,87,296,90.7,299.4,94.6z
			 M288.7,129.8H283v-3.1h-31.7v2.6h-5.6v-28.6h42.9V129.8z M283,124.2v-20.9h-31.7v20.9H283z"/>
		<path class="st0" d="M336.5,71.6v0.5c-0.9,0.3-2.2,0.6-4.1,0.8c-1.9,0.2-3.2,0.3-4.1,0.3v10.2h7.2v2.6h-7.2
			c0.5,2.9,1.4,5.6,2.8,8.2c1.4,2.4,3,4.8,4.9,7.2l-2.6,2c-1-0.9-2-1.9-2.8-3.1c-0.9-1-1.6-2-2.3-3.1v32.2h-5.1V98.7
			c-0.9,1.2-1.8,2.5-2.8,3.8c-0.9,1.4-1.8,2.6-2.8,3.8l-1.5-3.6c1.4-2.9,2.6-5.7,3.8-8.4c1-2.7,2-5.5,2.8-8.4h-6.1v-2.6h6.6v-9.2
			l-6.6,0.5l-0.5-2.6c1.7-0.5,3.6-1,5.6-1.5c1.9-0.3,3.9-0.9,6.1-1.5c0.5-0.3,1.1-0.7,1.8-1c0.7-0.3,1.4-0.5,2.3-0.5
			c0.5,0,1.4,0.5,2.6,1.5C335.6,70.1,336.3,70.9,336.5,71.6z M351.3,122.2l-1,1.5c-2.9,0.5-5.6,1.3-8.2,2.3c-2.7,1-5.4,2-8.2,2.8
			l-2-2.6c2.2-0.9,4.4-1.8,6.6-2.8c2.2-1.2,4.3-2.5,6.1-3.8c0.3-0.3,0.8-0.6,1.3-0.8c0.3-0.2,0.8-0.3,1.3-0.3c0.5,0,1.3,0.4,2.3,1.3
			C350.5,120.7,351.1,121.5,351.3,122.2z M373.7,90H337v-2.6h14.8v-5.1h-11.2v-3.1h11.2v-4.6h-13.3v-2.6h13.3c-0.2-1-0.3-2-0.5-2.8
			c-0.2-0.9-0.3-1.6-0.5-2.3l0.5-0.5l1.5-0.5l4.6,0.5l0.5,1.5c-0.2,0.3-0.3,0.9-0.3,1.5c-0.2,0.5-0.3,1.2-0.3,2v0.5h14.3v2.6h-14.3
			v4.6h12.8v3.1h-12.8v5.1h16.3V90z M370.7,117.1h-31.2V92.5h31.2V117.1z M365.1,99.7v-4.6h-19.9v4.6H365.1z M365.1,106.8v-4.6
			h-19.9v4.6H365.1z M365.1,114.5v-5.1h-19.9v5.1H365.1z M375.8,126.2l-2,2.6c-2.9-1-5.7-2.2-8.4-3.6c-2.9-1.2-5.7-2.6-8.4-4.1
			l4.6-3.6c2.2,1.5,4.5,3,6.9,4.3C370.8,123.4,373.2,124.9,375.8,126.2z"/>
		<path class="st0" d="M452.2,86.9h-5.6v-9.2h-21.5v15.3h-5.6V77.7h-20.4v9.2h-5.6V74.7h26v-4.1h-19.4V68h46v2.6h-20.9v4.1h27.1
			V86.9z M455.2,117.1c-0.3,1-0.7,2-1,3.1c-0.3,1.2-0.9,2.2-1.5,3.1c-0.7,0.7-1.7,1.4-3.1,2.3c-1.2,0.7-2.2,1.1-3.1,1.3h-20.4
			c-3.2-0.2-5.1-1.4-5.6-3.6c-0.7-2-1-4.3-1-6.6h-15.3v3.1h-5.6v-23h48.5v19.9h-22v3.1c-0.2,1.5,0,2.6,0.5,3.3
			c0.5,0.9,1.7,1.3,3.6,1.3h13.3c2.7-0.2,4.4-1.3,5.1-3.3c0.7-2,1.4-4,2-5.9L455.2,117.1z M416.4,85.4h-14.3v-2.6h14.3V85.4z
			 M416.4,92h-14.3v-2.6h14.3V92z M419.5,105.3v-6.1h-15.3v6.1H419.5z M419.5,114v-6.1h-15.3v6.1H419.5z M441.5,105.3v-6.1h-16.3
			v6.1H441.5z M441.5,114v-6.1h-16.3v6.1H441.5z M444.5,85.4h-15.3v-2.6h15.3V85.4z M444.5,92h-15.3v-2.6h15.3V92z"/>
		<path class="st0" d="M482.1,115.5c-1,2-2,4.3-3.1,6.6c-0.9,2.2-1.9,4.4-3.1,6.6l-5.1-3.1c1.4-1.9,2.7-3.7,4.1-5.6
			c1.4-1.9,2.7-3.7,4.1-5.6L482.1,115.5z M533.2,78.7h-15.3c0.5,0,1.3,0.3,2.3,1c1,0.7,1.6,1.2,1.8,1.5c-0.3,0.7-1.7,2.3-4.1,4.9
			c-2.4,2.4-4.1,4.2-5.1,5.4l4.6,3.6c0.9-1,2-2.5,3.6-4.3c1.5-1.7,2.9-2.6,4.1-2.8c0.7,0,1.4,0.1,2.3,0.3c0.7,0.3,1.4,0.8,2.3,1.3
			c0,0.3-0.1,0.7-0.3,1c-0.2,0.3-0.4,0.7-0.8,1c-2.2,1.5-4.6,3.7-7.1,6.4c-2.6,2.7-4.8,5.2-6.6,7.4l10.7-1.5l-2-4.6l3.1-1
			c1.2,1.5,2.3,3.2,3.3,4.9c1.2,1.7,2.3,3.5,3.3,5.4l-5.1,2.6c-0.3-0.9-0.6-1.6-0.8-2.3c-0.3-0.7-0.6-1.3-0.8-1.8l-18.9,2.6
			c-0.5,0.2-0.9,0.3-1.3,0.5c-0.5,0.2-0.9,0.3-1.3,0.5c-0.3,0-0.6-0.1-0.8-0.3c-0.2,0-0.3-0.1-0.3-0.3c-0.3-0.5-0.6-1-0.8-1.5
			c-0.2-0.5-0.3-1-0.3-1.5c0-0.5,0.1-0.9,0.3-1.3c0.2-0.2,0.4-0.3,0.8-0.3h5.1l5.1-6.1c-1.9-1.9-3.8-3.6-5.9-5.1
			c-1.9-1.7-3.8-3.4-5.9-5.1l2-3.1l5.1,3.1c1-1.7,2.3-3.4,3.8-5.1c1.4-1.9,2.1-3.6,2.3-5.1h-44.4v-2.6h19.9
			c-1.2-1.5-2.3-2.9-3.3-4.1c-1.2-1.2-2.3-2.4-3.3-3.6l3.1-2.6c1.7,1,3.4,2.1,5.1,3.3c1.7,1.2,3.4,2.5,5.1,3.8l-4.1,3.1h14.8
			l-0.5-1.5c1-1.4,2-2.6,2.8-3.8c1-1.4,2-2.6,2.8-3.8c0.2-0.5,0.4-0.9,0.8-1c0.3-0.2,0.8-0.2,1.3,0c0.9,0,2,0.3,3.3,1
			c1.4,0.5,2.1,1.4,2.3,2.6c0,0.3-0.2,0.5-0.5,0.5l-0.5,0.5c-1.5,0.7-2.8,1.5-3.8,2.6c-1,0.9-2.1,1.9-3.3,3.1h19.9V78.7z
			 M503.1,109.9l-5.1,2l-1-4.6l-18.9,3.6c-0.9,0-1.5,0.1-2,0.3c-0.7,0-1.2,0.1-1.5,0.3h-1.5l-0.5-3.6c0.2-0.5,0.5-0.9,1-1
			c0.3-0.3,0.9-0.7,1.5-1h6.1l4.1-5.6c-1.7-1.9-3.5-3.7-5.4-5.4c-1.9-1.7-3.8-3.3-5.9-4.9l2-3.1l4.6,2.6c0.5-1.4,1.4-3.1,2.8-5.1
			c1.5-2.2,3-3.4,4.3-3.6c0.7,0,1.4,0.2,2.3,0.5c0.9,0.3,1.6,0.9,2.3,1.5v1c-1.9,0.7-3.4,1.8-4.6,3.3c-1.4,1.5-2.7,3-4.1,4.3
			l4.6,4.1c1-1.7,2-3.4,3.1-5.1c1-1.7,2.6-2.7,4.6-3.1l3.6,2.6c0,0.3-0.2,0.7-0.5,1c-0.2,0.3-0.5,0.7-1,1l-12.3,13.8l9.7-1l-2-4.6
			l3.1-1.5c1.2,1.5,2.3,3.2,3.3,5.1C500.9,105.6,502,107.7,503.1,109.9z M521.4,119.6c-0.5,1.9-1.1,3.7-1.8,5.4
			c-0.5,1.5-1.6,3-3.3,4.3h-24.5c-0.9-0.2-1.8-0.4-2.8-0.8c-1-0.5-1.6-1.1-1.8-1.8v-4.6c0-1.5-0.1-3.2-0.3-4.9
			c-0.2-1.7-0.4-3-0.8-3.8l0.5-0.5l0.5-0.5c0.9,0,2,0.1,3.6,0.3c1.5,0,2.4,0.8,2.6,2.3c-0.2,0.2-0.3,0.5-0.3,1
			c-0.2,0.3-0.3,0.7-0.3,1v2.6v5.6c0,0.7,0.2,1.1,0.5,1.3c0.3,0.2,0.9,0.3,1.5,0.3h14.8c2.6-0.2,4.1-1.2,4.6-3.1
			c0.5-2,0.9-4.1,1-6.1L521.4,119.6z M509.7,118.6l-4.1,4.1c-1.2-1.5-2.4-2.9-3.6-4.1c-1.2-1.2-2.4-2.4-3.6-3.6l2.6-2.6
			c1.5,0.7,3,1.5,4.3,2.6C506.9,116,508.3,117.2,509.7,118.6z M534.7,124.7l-5.1,4.1c-1.2-2.6-2.4-5-3.6-7.4
			c-1.2-2.4-2.4-4.7-3.6-6.9l3.6-1.5c1.4,1.7,2.8,3.7,4.3,5.9C531.7,120.9,533.2,122.8,534.7,124.7z"/>
		<path class="st0" d="M612.1,107.4h-61.8v-2.6h16.9c-0.9-1.4-1.7-2.7-2.6-4.1c-0.9-1.4-1.7-2.7-2.6-4.1h-10.2v-2.6h26v-7.1h-19.4
			v-3.1h19.4v-5.1h-25.5v-2.6h58.2v2.6H583v5.1h20.4v3.1H583v7.1h27.6v2.6h-11.7l-5.6,8.2h18.9V107.4z M602.4,129.3h-5.6v-2.6h-31.7
			v2.6h-5.6v-18.4h42.9V129.3z M576.4,72.6l-5.1,3.1c-1.2-1.5-2.4-3-3.6-4.3c-1.2-1.2-2.4-2.3-3.6-3.3l2.6-2.6
			c1.7,1,3.3,2.1,4.9,3.3C573.2,70,574.9,71.3,576.4,72.6z M596.8,124.2v-10.7h-31.7v10.7H596.8z M577.9,104.8v-8.2h-10.2
			c0.9,1.2,1.8,2.6,2.8,4.1c0.9,1.4,1.8,2.7,2.8,4.1H577.9z M592.2,96.6H583v8.2h5.1c0.3-0.9,0.8-1.5,1.3-2c0.3-0.7,0.8-1.2,1.3-1.5
			c0.2-0.9,0.4-1.6,0.8-2.3C591.6,98.2,591.9,97.5,592.2,96.6z M597.8,68.5c-1.4,0.9-2.6,1.9-3.8,3.1c-1.2,1-2.3,2.2-3.3,3.6
			l-4.1-1.5l5.1-7.7L597.8,68.5z"/>
		<path class="st0" d="M691.6,117.6l-2,3.1c-4.6-2.4-8.7-5.1-12.3-8.2c-3.6-3.1-7-6.5-10.2-10.2h-16.3c-3.1,3.7-6.5,7.1-10.2,10
			c-3.6,2.9-7.5,5.5-11.7,7.9l-1.3-2c3.1-2.4,6-4.9,8.9-7.4c2.7-2.7,5.3-5.5,7.7-8.4h-16.3v-2.6h15.8V78.7h-12.8v-2.6h12.8v-5.1
			c-0.2-0.5-0.3-0.9-0.5-1.3c-0.3-0.5-0.5-0.9-0.5-1.3s0.2-0.6,0.5-0.8c0.3-0.2,0.7-0.3,1-0.3l5.6,1v1.5c-0.2,0.5-0.3,1.1-0.3,1.8
			c-0.2,0.7-0.3,1.4-0.3,2.3v2h20.4v-5.1l-0.5-2.6c-0.2-0.3-0.2-0.6,0-0.8c0-0.2,0.2-0.3,0.5-0.3c0.7-0.2,1.7-0.2,3.1,0
			c1.5,0.2,2.4,0.5,2.6,1l0.5,1.5c-0.2,0.7-0.3,1.4-0.3,2.3c-0.2,0.9-0.3,1.8-0.3,2.8v1H687v2.6h-11.7v20.9h14.8v2.6h-15.3
			c2,3.2,4.5,6,7.4,8.4C685.1,113.2,688.2,115.5,691.6,117.6z M685,127.8h-51.6v-3.1h23v-7.7h-13.8v-2.6h13.8v-4.6
			c-0.2-0.5-0.3-0.9-0.5-1.3c-0.3-0.5-0.5-0.9-0.5-1.3s0.1-0.6,0.3-0.8c0.3-0.2,0.8-0.3,1.3-0.3c1-0.2,2.1-0.3,3.3-0.3
			s2,0.8,2.3,2.3c-0.3,0.7-0.5,1.4-0.5,2c-0.2,0.5-0.2,1.2,0,2v2h13.3v2.6H662v7.7h23V127.8z M669.7,83.3v-4.6h-20.4v4.6H669.7z
			 M669.7,91v-5.1h-20.4V91H669.7z M669.7,99.7v-5.6h-20.4v5.6H669.7z"/>
		<path class="st0" d="M769.6,94.6l-2,3.1c-6-3.1-11.1-6.2-15.6-9.4c-4.4-3.4-8.6-7.6-12.5-12.5c-4.6,5.1-9.4,9.3-14.6,12.5
			c-5.1,3.2-10.8,6.4-17.1,9.4l-1-2.6c6.5-3.1,12.2-6.9,17.1-11.5c4.8-4.4,8.9-9.8,12.5-16.1h6.1c2.6,6.3,6.1,11.6,10.7,15.8
			C757.8,87.8,763.3,91.5,769.6,94.6z M767.5,127.8h-58.7v-3.1h27.6v-18.4h-20.9v-2.6h20.9V93.6h-12.3V91h29.1v2.6H742v10.2h19.9
			v2.6H742v18.4h25.5V127.8z M732.8,120.6l-5.6,3.1c-1-2.4-2.2-4.6-3.6-6.6c-1.2-2-2.6-3.9-4.1-5.6l2.6-2.6c1.9,1.7,3.7,3.7,5.4,5.9
			C729.1,116.8,730.9,118.8,732.8,120.6z M758.8,112.5l-11.7,11.7l-2.6-1.5c1-2,2.2-4,3.6-5.9c1.4-2,2.4-4,3.1-5.9l0.5-1.5
			c0.3-0.3,0.7-0.5,1-0.5c0.5,0,1.4,0.4,2.8,1.3C756.7,111,757.8,111.8,758.8,112.5z"/>
		<path class="st0" d="M847.5,82.3l-1.5,3.6c-5.4-1.9-10.6-3.9-15.3-6.1c-4.8-2.2-9.4-4.8-13.8-7.7c-3.4,2-8.3,4.7-14.6,7.9
			c-6.3,3.2-11.2,5-14.6,5.4c-0.7-0.2-1.2-0.5-1.5-1c-0.5-0.5-0.9-1-1-1.5c5.6-2,10.7-4.3,15.3-6.9c4.6-2.6,9.2-5.9,13.8-10h4.6
			c4.4,4.4,8.9,7.7,13.3,10C836.6,78.2,841.7,80.3,847.5,82.3z M842.9,105.8h-52.6V90h52.6V105.8z M805.1,103.3
			c-0.9-1.5-1.7-3.1-2.6-4.6c-0.9-1.5-1.5-3.1-2-4.6l1.5-1.5h-6.6v10.7H805.1z M836.2,128.8h-5.6v-2.6H801v2.6h-5.6v-19.9h40.9
			V128.8z M833.2,84.9H800v-2.6h33.2V84.9z M830.6,116.5v-5.1H801v5.1H830.6z M830.6,123.7v-4.6H801v4.6H830.6z M813.3,103.3V92.5
			h-9.7c1,1.2,2.1,2.4,3.3,3.6c1.2,1.2,2.5,2.4,3.8,3.6l-4.1,3.6H813.3z M837.3,103.3V92.5h-6.1h-0.5l3.6,2.6v1
			c-1.5,0.9-3,1.9-4.3,3.1c-1.4,1-2.6,2.2-3.8,3.6l-2.6-1c0.7-1.5,1.5-3.1,2.6-4.6c1-1.4,1.7-2.9,2-4.6h-9.7v10.7H837.3z"/>
	</g>
</g>
<g>
	<g>
		<path class="st0" d="M236.2,146.4h21.6l0.7,8.6h-1c-0.6-2.9-1.4-4.9-2.4-6c-1-1.1-2.3-1.7-3.8-1.7h-2.1v23.4h4.5v1h-13.5v-1h4.5
			v-23.4h-2.1c-1.6,0-2.9,0.6-3.8,1.7c-1,1.1-1.8,3.1-2.4,6h-1L236.2,146.4z"/>
		<path class="st0" d="M276.9,146.1l0.1,6.6h-0.9c-1.3-3.9-3.5-5.9-6.7-5.9c-1.8,0-3.1,0.5-4.1,1.5c-1,1-1.5,2-1.5,3
			c0,1,0.4,1.8,1.2,2.5c0.8,0.7,2.3,1.2,4.4,1.6c2.2,0.4,3.8,0.8,4.9,1.4c1.1,0.5,2.1,1.4,2.8,2.7c0.8,1.2,1.2,2.7,1.2,4.3
			c0,2.5-0.8,4.5-2.4,6.2c-1.6,1.6-3.6,2.5-6,2.5c-2,0-3.9-0.7-5.8-2.2l-1.8,1.6h-0.7v-7.1h0.8c0.7,2.2,1.8,3.9,3.1,5
			c1.3,1.1,2.8,1.7,4.4,1.7c1.6,0,3-0.5,4.3-1.6c1.3-1,2-2.3,2-3.9c0-1.3-0.5-2.5-1.4-3.4c-0.9-0.9-2.4-1.5-4.4-1.9
			c-2-0.3-3.6-0.7-4.7-1.2c-1.1-0.5-2-1.3-2.8-2.4c-0.8-1.1-1.2-2.4-1.2-3.8c0-1.9,0.7-3.6,2-5.1c1.4-1.5,3.2-2.3,5.5-2.3
			c2,0,3.8,0.6,5.5,1.9c0.5-0.4,0.9-1,1.2-1.5H276.9z"/>
		<path class="st0" d="M282.1,146.4h9.1l5.4,17.9h0.1l5.5-17.9h8.9v1h-3.8v23.4h3.8v1h-11.9v-1h3.9v-23.8h-0.1l-7.5,24.8h-0.9
			l-7.5-24.8h-0.1v23.8h3.9v1h-8.6v-1h3.8v-23.4h-3.8V146.4z"/>
		<path class="st0" d="M333.5,146.1v7.5h-0.8c-0.9-4.6-3.2-6.9-6.8-6.9c-2,0-3.4,0.8-4.3,2.3c-0.9,1.5-1.4,4.8-1.4,9.8
			c0,4.1,0.2,6.9,0.6,8.3c0.4,1.5,1.1,2.5,2,3.2c1,0.6,2,1,3.2,1c1.5,0,2.9-0.6,4.3-1.7c1.3-1.1,2.4-3,3.1-5.5h0.9l-0.3,7.7h-0.8
			c-0.3-0.8-0.7-1.5-1.4-2c-2,1.6-4,2.5-6.1,2.5c-2.7,0-5.1-1.3-7.3-3.8c-2.2-2.5-3.3-5.6-3.3-9.3c0-3.7,1.1-6.9,3.2-9.5
			c2.2-2.6,4.7-3.9,7.5-3.9c2.2,0,4.1,0.8,5.8,2.4c0.5-0.8,0.9-1.5,1.1-2.1H333.5z"/>
		<path class="st0" d="M365.9,146.1v7.5h-0.8c-0.9-4.6-3.2-6.9-6.8-6.9c-2,0-3.4,0.8-4.3,2.3c-0.9,1.5-1.4,4.8-1.4,9.8
			c0,4.1,0.2,6.9,0.6,8.3s1.1,2.5,2,3.2c1,0.6,2,1,3.2,1c1.5,0,2.9-0.6,4.3-1.7c1.3-1.1,2.4-3,3.1-5.5h0.9l-0.3,7.7h-0.8
			c-0.3-0.8-0.7-1.5-1.4-2c-2,1.6-4,2.5-6.1,2.5c-2.7,0-5.1-1.3-7.3-3.8c-2.2-2.5-3.3-5.6-3.3-9.3c0-3.7,1.1-6.9,3.2-9.5
			c2.2-2.6,4.7-3.9,7.5-3.9c2.2,0,4.1,0.8,5.8,2.4c0.5-0.8,0.9-1.5,1.1-2.1H365.9z"/>
		<path class="st0" d="M372.5,170.7v-23.4h-2.9v-1h2.8c1.7,0,3-0.1,3.8-0.3v14.1h0.1c1.3-2.4,3-3.6,5.3-3.6c0.9,0,1.8,0.2,2.7,0.7
			c0.9,0.5,1.4,1.1,1.7,2c0.2,0.9,0.4,2.3,0.4,4.2v7.2h2.4v1h-8.5v-1h2.4v-7.5c0-2-0.1-3.5-0.2-4.4c-0.1-0.9-0.7-1.3-1.7-1.3
			c-1.1,0-2,0.5-2.8,1.4c-0.7,0.9-1.2,1.9-1.5,2.9c-0.2,1-0.3,2.6-0.3,4.8v4.1h2.4v1h-8.8v-1H372.5z"/>
		<path class="st0" d="M401.2,163.2v-1.9c0-1.6-0.1-2.6-0.4-3.1c-0.3-0.5-1-0.7-2.1-0.7c-2,0-3.1,0.4-3.1,1.2c0,0.2,0.1,0.5,0.3,0.7
			c0.2,0.3,0.3,0.6,0.3,1c0,0.5-0.2,0.9-0.5,1.2c-0.3,0.3-0.7,0.4-1.2,0.4c-0.6,0-1-0.2-1.3-0.5c-0.3-0.3-0.5-0.8-0.5-1.2
			c0-1,0.6-1.9,1.8-2.5c1.2-0.7,2.8-1,4.9-1c1.7,0,2.9,0.2,3.7,0.6c0.8,0.4,1.3,0.9,1.4,1.5c0.2,0.6,0.3,1.4,0.3,2.5v6.9
			c0,1,0.1,1.7,0.2,1.9c0.1,0.3,0.4,0.4,0.7,0.4c0.5,0,0.9-0.3,1.3-0.9h0.5c-0.3,1.8-1.4,2.8-3.2,2.8c-1.7,0-2.8-1-3.1-3
			c-1.5,2-3.2,3-5.2,3c-1.3,0-2.4-0.4-3.1-1.1c-0.8-0.7-1.2-1.6-1.2-2.6C391.7,165.3,394.9,163.5,401.2,163.2z M401.2,166.1v-2
			c-2.3,0.1-3.9,0.4-4.6,1c-0.7,0.6-1.1,1.5-1.1,2.7c0,0.8,0.2,1.5,0.7,2c0.4,0.5,1,0.7,1.5,0.7c0.7,0,1.4-0.2,2-0.7
			c0.6-0.5,1-1,1.2-1.5C401.1,167.7,401.2,167,401.2,166.1z"/>
		<path class="st0" d="M412.5,170.7v-12.9h-3.1v-1h3.1c1.6,0,2.8-0.1,3.6-0.2v3.6h0.1c0.9-2.4,2.2-3.6,3.9-3.6
			c0.8,0,1.4,0.2,1.8,0.7c0.5,0.5,0.7,1,0.7,1.7c0,0.6-0.2,1.1-0.6,1.5c-0.4,0.4-0.9,0.6-1.4,0.6c-1.1,0-1.6-0.5-1.6-1.6l0.1-0.8
			c0-0.3-0.1-0.4-0.4-0.4c-0.4,0-0.9,0.6-1.6,1.7c-0.6,1.1-1,2.8-1,5.1v5.8h3.1v1h-9.9v-1H412.5z"/>
		<path class="st0" d="M430.5,156.6v14.2h2.5v1h-8.8v-1h2.6v-12.9h-2.6v-1h2.7C428.2,156.8,429.4,156.7,430.5,156.6z M426.7,149.3
			c0-0.6,0.2-1,0.6-1.4c0.4-0.4,0.9-0.6,1.4-0.6c0.6,0,1,0.2,1.4,0.6c0.4,0.4,0.6,0.9,0.6,1.4c0,0.6-0.2,1.1-0.6,1.5
			c-0.4,0.4-0.9,0.6-1.5,0.6s-1.1-0.2-1.5-0.6C427,150.4,426.7,149.9,426.7,149.3z"/>
		<path class="st0" d="M441.6,152.5v4.3h4.5v1h-4.5v9.3c0,1.4,0.1,2.3,0.3,2.8c0.2,0.5,0.7,0.8,1.5,0.8c0.6,0,1.2-0.2,1.7-0.6
			c0.6-0.4,1-1,1.3-1.9h0.8c-0.6,2.4-2.3,3.7-5.3,3.7c-1.2,0-2.1-0.2-2.7-0.7c-0.6-0.4-0.9-1-1.1-1.7c-0.1-0.7-0.2-1.5-0.2-2.7v-9.1
			h-3.4v-1h3.4v-4C439.2,152.9,440.4,152.7,441.6,152.5z"/>
		<path class="st0" d="M455.2,157.8l5.3,10.3l4.6-10.3h-3.3v-1h6.7v1H466l-7.6,17.2c-1.1,2.5-2,4.2-2.8,5.2c-0.8,1-1.7,1.5-2.8,1.5
			c-0.7,0-1.2-0.2-1.6-0.7c-0.4-0.4-0.6-0.9-0.6-1.5c0-0.5,0.2-0.9,0.5-1.2c0.3-0.3,0.7-0.5,1.1-0.5c0.6,0,1.1,0.3,1.4,0.9
			c0.3,0.6,0.6,0.8,0.8,0.8c0.3,0,0.7-0.3,1.1-0.9c0.4-0.6,1-1.8,1.8-3.6l1.2-2.8l-7.5-14.5H449v-1h9.1v1H455.2z"/>
		<path class="st0" d="M484.7,170.7v-23.4h-4v-1h21.4l0.3,7.6h-0.8c0-0.2-0.2-1.1-0.7-2.6c-0.4-1.5-1.1-2.5-1.9-3.2
			c-0.8-0.6-2.3-0.9-4.3-0.9h-5.5v11h1c1.1,0,2-0.1,2.6-0.2c0.6-0.1,1.2-0.6,1.7-1.3c0.5-0.7,0.8-1.8,0.9-3.3h1v10.7h-1
			c-0.1-1.6-0.4-2.8-0.8-3.5c-0.4-0.7-0.9-1.2-1.6-1.3c-0.6-0.2-1.6-0.2-2.8-0.2h-1v11.5h4.5v1h-12.9v-1H484.7z"/>
		<path class="st0" d="M502.1,164.2c0-2.2,0.7-4,2.2-5.6c1.5-1.5,3.4-2.3,5.6-2.3c2.2,0,4,0.7,5.5,2.2c1.5,1.5,2.3,3.3,2.3,5.5
			c0,2.3-0.8,4.2-2.3,5.7c-1.6,1.6-3.4,2.3-5.5,2.3c-2.1,0-3.9-0.8-5.4-2.3C502.8,168.3,502.1,166.4,502.1,164.2z M513.4,164.2
			c0-2.3-0.1-3.8-0.2-4.6c-0.2-0.7-0.5-1.3-1.1-1.8c-0.5-0.4-1.3-0.7-2.3-0.7c-0.9,0-1.7,0.2-2.2,0.7c-0.6,0.4-0.9,1-1.1,1.8
			c-0.1,0.7-0.2,2.3-0.2,4.6c0,2.3,0.1,3.9,0.3,4.6c0.2,0.8,0.5,1.3,1.1,1.8c0.6,0.4,1.3,0.6,2.2,0.6c0.9,0,1.6-0.2,2.2-0.7
			c0.6-0.4,1-1,1.1-1.8C513.3,168.1,513.4,166.5,513.4,164.2z"/>
		<path class="st0" d="M536.7,156.8v13.9h2.5v1h-2.5c-2,0-3.2,0.1-3.7,0.2v-3.5h-0.1c-1.1,2.3-2.9,3.5-5.3,3.5
			c-1.4,0-2.5-0.4-3.4-1.1c-0.8-0.7-1.3-2.3-1.3-4.7v-8.3h-2.7v-1h6.4v10c0,1.6,0.1,2.6,0.3,3.2c0.2,0.6,0.7,0.9,1.5,0.9
			c1.2,0,2.2-0.6,3.2-1.9c1-1.2,1.5-3.1,1.5-5.6v-5.7h-3v-1H536.7z"/>
		<path class="st0" d="M544.1,170.7v-12.9h-2.7v-1h1.7c1.7,0,3.2-0.1,4.6-0.3v3.7h0.1c1.3-2.6,3.1-3.9,5.5-3.9c1.1,0,2,0.3,2.7,0.8
			c0.7,0.6,1.2,1.2,1.5,2c0.3,0.8,0.4,2,0.4,3.6v7.9h2.9v1h-9.1v-1h2.5v-9.4c0-1.4-0.1-2.4-0.3-3c-0.2-0.6-0.7-0.8-1.4-0.8
			c-1.2,0-2.3,0.6-3.3,1.9c-1,1.3-1.5,2.9-1.5,5v6.3h2.5v1h-8.8v-1H544.1z"/>
		<path class="st0" d="M578.3,146.1v24.6h2.5v1h-2.1c-1.3,0-2.7,0.1-4.2,0.2v-3.1h-0.1c-1,2.2-2.6,3.3-4.8,3.3
			c-1.8,0-3.3-0.8-4.7-2.4c-1.4-1.6-2-3.4-2-5.4c0-2.1,0.7-4,2.1-5.6c1.4-1.6,3.1-2.4,5-2.4c2,0,3.4,0.9,4.4,2.7h0.1v-11.7H571v-1
			h3.4C575.7,146.4,577,146.3,578.3,146.1z M570.1,157.2c-1.4,0-2.2,0.5-2.6,1.5c-0.3,1-0.5,3.1-0.5,6.2c0,2.7,0.2,4.4,0.7,5.1
			c0.4,0.7,1.2,1.1,2.1,1.1c1.1,0,2-0.4,2.8-1.1c0.8-0.7,1.3-1.5,1.6-2.5c0.3-0.9,0.4-2.4,0.4-4.5c0-2-0.4-3.4-1.2-4.4
			C572.6,157.7,571.5,157.2,570.1,157.2z"/>
		<path class="st0" d="M593.2,163.2v-1.9c0-1.6-0.1-2.6-0.4-3.1c-0.3-0.5-1-0.7-2.1-0.7c-2,0-3.1,0.4-3.1,1.2c0,0.2,0.1,0.5,0.3,0.7
			c0.2,0.3,0.3,0.6,0.3,1c0,0.5-0.2,0.9-0.5,1.2c-0.3,0.3-0.7,0.4-1.2,0.4c-0.6,0-1-0.2-1.3-0.5c-0.3-0.3-0.5-0.8-0.5-1.2
			c0-1,0.6-1.9,1.8-2.5c1.2-0.7,2.8-1,4.9-1c1.7,0,2.9,0.2,3.7,0.6c0.8,0.4,1.3,0.9,1.4,1.5c0.2,0.6,0.3,1.4,0.3,2.5v6.9
			c0,1,0.1,1.7,0.2,1.9c0.1,0.3,0.4,0.4,0.7,0.4c0.5,0,0.9-0.3,1.3-0.9h0.5c-0.3,1.8-1.4,2.8-3.2,2.8c-1.7,0-2.8-1-3.1-3
			c-1.5,2-3.2,3-5.2,3c-1.3,0-2.4-0.4-3.1-1.1c-0.8-0.7-1.2-1.6-1.2-2.6C583.7,165.3,586.9,163.5,593.2,163.2z M593.2,166.1v-2
			c-2.3,0.1-3.9,0.4-4.6,1c-0.7,0.6-1.1,1.5-1.1,2.7c0,0.8,0.2,1.5,0.7,2c0.4,0.5,1,0.7,1.5,0.7c0.7,0,1.4-0.2,2-0.7
			c0.6-0.5,1-1,1.2-1.5C593.1,167.7,593.2,167,593.2,166.1z"/>
		<path class="st0" d="M608.3,152.5v4.3h4.5v1h-4.5v9.3c0,1.4,0.1,2.3,0.3,2.8c0.2,0.5,0.7,0.8,1.5,0.8c0.6,0,1.2-0.2,1.7-0.6
			c0.6-0.4,1-1,1.3-1.9h0.8c-0.6,2.4-2.3,3.7-5.3,3.7c-1.2,0-2.1-0.2-2.7-0.7c-0.6-0.4-0.9-1-1.1-1.7c-0.1-0.7-0.2-1.5-0.2-2.7v-9.1
			h-3.4v-1h3.4v-4C605.8,152.9,607.1,152.7,608.3,152.5z"/>
		<path class="st0" d="M622.2,156.6v14.2h2.5v1h-8.8v-1h2.6v-12.9h-2.6v-1h2.7C619.8,156.8,621,156.7,622.2,156.6z M618.4,149.3
			c0-0.6,0.2-1,0.6-1.4c0.4-0.4,0.9-0.6,1.4-0.6c0.6,0,1,0.2,1.4,0.6c0.4,0.4,0.6,0.9,0.6,1.4c0,0.6-0.2,1.1-0.6,1.5
			c-0.4,0.4-0.9,0.6-1.5,0.6s-1.1-0.2-1.5-0.6C618.6,150.4,618.4,149.9,618.4,149.3z"/>
		<path class="st0" d="M627,164.2c0-2.2,0.7-4,2.2-5.6c1.5-1.5,3.4-2.3,5.6-2.3c2.2,0,4,0.7,5.5,2.2c1.5,1.5,2.3,3.3,2.3,5.5
			c0,2.3-0.8,4.2-2.3,5.7c-1.6,1.6-3.4,2.3-5.5,2.3c-2.1,0-3.9-0.8-5.4-2.3C627.7,168.3,627,166.4,627,164.2z M638.3,164.2
			c0-2.3-0.1-3.8-0.2-4.6c-0.2-0.7-0.5-1.3-1.1-1.8c-0.5-0.4-1.3-0.7-2.3-0.7c-0.9,0-1.7,0.2-2.2,0.7c-0.6,0.4-0.9,1-1.1,1.8
			c-0.1,0.7-0.2,2.3-0.2,4.6c0,2.3,0.1,3.9,0.3,4.6c0.2,0.8,0.5,1.3,1.1,1.8c0.6,0.4,1.3,0.6,2.2,0.6c0.9,0,1.6-0.2,2.2-0.7
			c0.6-0.4,1-1,1.1-1.8C638.2,168.1,638.3,166.5,638.3,164.2z"/>
		<path class="st0" d="M648.1,170.7v-12.9h-2.7v-1h1.7c1.7,0,3.2-0.1,4.6-0.3v3.7h0.1c1.3-2.6,3.1-3.9,5.5-3.9c1.1,0,2,0.3,2.7,0.8
			c0.7,0.6,1.2,1.2,1.5,2c0.3,0.8,0.4,2,0.4,3.6v7.9h2.9v1h-9.1v-1h2.5v-9.4c0-1.4-0.1-2.4-0.3-3c-0.2-0.6-0.7-0.8-1.4-0.8
			c-1.2,0-2.3,0.6-3.3,1.9c-1,1.3-1.5,2.9-1.5,5v6.3h2.5v1h-8.8v-1H648.1z"/>
	</g>
</g>
<g>
	<g>
		<g>
			<defs>
				<path id="SVGID_1_" d="M46.1,131.3c0,0,11.6-19.3,27-9.9c18.2,11.1,28,8.6,29.3-9.9c1.2-18.4-9.4-52.4,0-46.8
					c9.4,5.6,13.9,30.5,12.4,49.4c-1.3,15.4,16.8-9.6,9.5-33.9c-6.9-22.8,30.4,11,5.3,47.2c0,0-2.7,6,3.5,2.2
					c9-5.5,14.5-12.9,14.1-27.3c-0.3-13.3,17.2,11.5-0.9,33.2c-10.7,12.8-3.6,13.1,10.2,3.1c4.7-3.4,3.4,15.1-24,25.7
					c-23,8.9,13.8,36.4-6.5,36.4l-28-0.3l0,0c-0.4-22.3,4.4-30.3-10.6-37.6C66.2,152.5,72.7,130.8,46.1,131.3z"/>
			</defs>
			<clipPath id="SVGID_2_">
				<use xlink:href="#SVGID_1_"  style="overflow:visible;"/>
			</clipPath>
			<g class="st1">
				<path class="st2" d="M97.8,142.4c-2.4-0.9-4.8-2.1-7-3.4c-7.2,4.2-15.6,6.6-24.7,6.6c-16.6,0-31.2-8.2-40.2-20.8
					c-5.7,8-9.1,17.9-9.1,28.5c0,27.2,22.1,49.3,49.3,49.3c5.2,0,10.3-0.8,15-2.3c-2.2-5.6-3.5-11.8-3.5-18.2
					C77.6,165.8,85.6,151.3,97.8,142.4z"/>
				<path class="st3" d="M197.9,136.9c0-21.7-14.1-40.1-33.6-46.7c0.2,2,0.4,4.1,0.4,6.1c0,16.3-7.9,30.8-20.2,39.7
					c17.2,6.6,29.8,22.6,31.5,41.8C189.2,169.1,197.9,154,197.9,136.9z"/>
				<path class="st4" d="M66.1,104.1c0.2,0,0.5,0,0.7,0c-0.4-2.5-0.7-5.1-0.7-7.7c0-18.2,9.9-34.1,24.7-42.6
					c-7.2-4.2-15.6-6.7-24.7-6.7c-27.2,0-49.3,22.1-49.3,49.3c0,10.6,3.4,20.5,9.1,28.5C34.9,112.3,49.5,104.1,66.1,104.1z"/>
				<path class="st2" d="M66.1,145.7c9,0,17.4-2.4,24.7-6.6c-12.6-7.3-21.6-20-24-34.9c-0.2,0-0.4,0-0.7,0
					c-16.6,0-31.2,8.2-40.2,20.8C34.9,137.5,49.5,145.7,66.1,145.7z"/>
				<path class="st5" d="M66.1,145.7c9,0,17.4-2.4,24.7-6.6c-12.6-7.3-21.6-20-24-34.9c-0.2,0-0.4,0-0.7,0
					c-16.6,0-31.2,8.2-40.2,20.8C34.9,137.5,49.5,145.7,66.1,145.7z"/>
				<path class="st6" d="M112.4,170.3c-5.2,14.2-16.7,25.4-31.2,30c7.3,18.2,25,31.1,45.8,31.1c27.2,0,49.3-22.1,49.3-49.3
					c0-1.4-0.1-2.8-0.2-4.2c-7.8,5.3-17.3,8.3-27.4,8.3C134.3,186.2,121.4,180.1,112.4,170.3z"/>
				<path class="st2" d="M112.4,170.3c-6.8-7.3-11.3-16.8-12.6-27.2c-0.6-0.2-1.3-0.4-1.9-0.7c-12.2,9-20.2,23.4-20.2,39.7
					c0,6.5,1.3,12.6,3.5,18.2C95.6,195.7,107.2,184.5,112.4,170.3z"/>
				<path class="st7" d="M112.4,170.3c-6.8-7.3-11.3-16.8-12.6-27.2c-0.6-0.2-1.3-0.4-1.9-0.7c-12.2,9-20.2,23.4-20.2,39.7
					c0,6.5,1.3,12.6,3.5,18.2C95.6,195.7,107.2,184.5,112.4,170.3z"/>
				<path class="st3" d="M144.5,136.1c-8.2,6-18.2,9.5-29.1,9.5c-0.2,0-0.5,0-0.7,0c0.4,2.5,0.7,5.1,0.7,7.7
					c0,5.9-1.1,11.6-3.1,16.9c9,9.8,21.9,15.9,36.2,15.9c10.1,0,19.5-3,27.4-8.3C174.3,158.7,161.7,142.7,144.5,136.1z"/>
				<path class="st8" d="M144.5,136.1c-8.2,6-18.2,9.5-29.1,9.5c-0.2,0-0.5,0-0.7,0c0.4,2.5,0.7,5.1,0.7,7.7
					c0,5.9-1.1,11.6-3.1,16.9c9,9.8,21.9,15.9,36.2,15.9c10.1,0,19.5-3,27.4-8.3C174.3,158.7,161.7,142.7,144.5,136.1z"/>
				<path class="st2" d="M112.4,170.3c2-5.3,3.1-11,3.1-16.9c0-2.7-0.3-5.2-0.7-7.7c-5.3-0.1-10.3-1-15-2.6
					C101,153.5,105.6,162.9,112.4,170.3z"/>
				<path class="st3" d="M112.4,170.3c2-5.3,3.1-11,3.1-16.9c0-2.7-0.3-5.2-0.7-7.7c-5.3-0.1-10.3-1-15-2.6
					C101,153.5,105.6,162.9,112.4,170.3z"/>
				<path class="st9" d="M112.4,170.3c2-5.3,3.1-11,3.1-16.9c0-2.7-0.3-5.2-0.7-7.7c-5.3-0.1-10.3-1-15-2.6
					C101,153.5,105.6,162.9,112.4,170.3z"/>
				<path class="st10" d="M115.4,96.4c0,1.5-0.1,2.9-0.2,4.4c8.8-8.1,20.5-13.1,33.4-13.1c5.5,0,10.8,0.9,15.7,2.6
					c-3-24.3-23.7-43.2-48.8-43.2c-9,0-17.4,2.5-24.7,6.7C105.5,62.3,115.4,78.2,115.4,96.4z"/>
				<path class="st2" d="M99.3,136.9c0-1.5,0.1-2.9,0.2-4.4c-2.7,2.5-5.6,4.6-8.7,6.5c2.2,1.3,4.6,2.4,7,3.4
					c0.6-0.4,1.1-0.9,1.7-1.2C99.4,139.7,99.3,138.3,99.3,136.9z"/>
				<path class="st11" d="M99.3,136.9c0-1.5,0.1-2.9,0.2-4.4c-2.7,2.5-5.6,4.6-8.7,6.5c2.2,1.3,4.6,2.4,7,3.4
					c0.6-0.4,1.1-0.9,1.7-1.2C99.4,139.7,99.3,138.3,99.3,136.9z"/>
				<path class="st3" d="M115.2,100.8c-0.8,8.9-4,17.2-8.9,24.1c2.2,3.2,4.1,6.6,5.6,10.3c4.7-1.5,9.8-2.3,15-2.3
					c6.2,0,12.1,1.2,17.6,3.3c12.2-9,20.2-23.4,20.2-39.7c0-2.1-0.2-4.1-0.4-6.1c-4.9-1.7-10.2-2.6-15.7-2.6
					C135.7,87.7,124,92.6,115.2,100.8z"/>
				<path class="st12" d="M115.2,100.8c-0.8,8.9-4,17.2-8.9,24.1c2.2,3.2,4.1,6.6,5.6,10.3c4.7-1.5,9.8-2.3,15-2.3
					c6.2,0,12.1,1.2,17.6,3.3c12.2-9,20.2-23.4,20.2-39.7c0-2.1-0.2-4.1-0.4-6.1c-4.9-1.7-10.2-2.6-15.7-2.6
					C135.7,87.7,124,92.6,115.2,100.8z"/>
				<path class="st2" d="M99.5,132.6c-0.1,1.4-0.2,2.9-0.2,4.4c0,1.4,0.1,2.8,0.2,4.2c3.8-2.5,8-4.5,12.4-6
					c-1.5-3.7-3.4-7.1-5.6-10.3C104.3,127.7,102,130.2,99.5,132.6z"/>
				<path class="st3" d="M99.5,132.6c-0.1,1.4-0.2,2.9-0.2,4.4c0,1.4,0.1,2.8,0.2,4.2c3.8-2.5,8-4.5,12.4-6
					c-1.5-3.7-3.4-7.1-5.6-10.3C104.3,127.7,102,130.2,99.5,132.6z"/>
				<path class="st13" d="M99.5,132.6c-0.1,1.4-0.2,2.9-0.2,4.4c0,1.4,0.1,2.8,0.2,4.2c3.8-2.5,8-4.5,12.4-6
					c-1.5-3.7-3.4-7.1-5.6-10.3C104.3,127.7,102,130.2,99.5,132.6z"/>
				<path class="st4" d="M66.1,96.4c0,2.6,0.3,5.2,0.7,7.7c14.1,0.2,26.7,6.3,35.5,15.9c2.7-7.4,7.2-14,12.9-19.3
					c0.1-1.4,0.2-2.9,0.2-4.4c0-18.2-9.9-34.1-24.7-42.6C76.1,62.3,66.1,78.2,66.1,96.4z"/>
				<path class="st14" d="M66.1,96.4c0,2.6,0.3,5.2,0.7,7.7c14.1,0.2,26.7,6.3,35.5,15.9c2.7-7.4,7.2-14,12.9-19.3
					c0.1-1.4,0.2-2.9,0.2-4.4c0-18.2-9.9-34.1-24.7-42.6C76.1,62.3,66.1,78.2,66.1,96.4z"/>
				<path class="st2" d="M102.3,120c-8.9-9.6-21.5-15.7-35.5-15.9c2.4,14.9,11.4,27.6,24,34.9c3.2-1.8,6.1-4,8.7-6.5
					C99.9,128.2,100.9,124,102.3,120z"/>
				<path class="st4" d="M102.3,120c-8.9-9.6-21.5-15.7-35.5-15.9c2.4,14.9,11.4,27.6,24,34.9c3.2-1.8,6.1-4,8.7-6.5
					C99.9,128.2,100.9,124,102.3,120z"/>
				<path class="st15" d="M102.3,120c-8.9-9.6-21.5-15.7-35.5-15.9c2.4,14.9,11.4,27.6,24,34.9c3.2-1.8,6.1-4,8.7-6.5
					C99.9,128.2,100.9,124,102.3,120z"/>
				<path class="st3" d="M115.2,100.8c-5.7,5.2-10.1,11.9-12.9,19.3c1.4,1.5,2.7,3.1,4,4.8C111.2,118,114.4,109.7,115.2,100.8z"/>
				<path class="st4" d="M115.2,100.8c-5.7,5.2-10.1,11.9-12.9,19.3c1.4,1.5,2.7,3.1,4,4.8C111.2,118,114.4,109.7,115.2,100.8z"/>
				<path class="st8" d="M115.2,100.8c-5.7,5.2-10.1,11.9-12.9,19.3c1.4,1.5,2.7,3.1,4,4.8C111.2,118,114.4,109.7,115.2,100.8z"/>
				<path class="st2" d="M106.3,124.9c-1.2-1.7-2.5-3.3-4-4.8c-1.5,4-2.4,8.2-2.8,12.5C102,130.2,104.3,127.7,106.3,124.9z"/>
				<path class="st3" d="M106.3,124.9c-1.2-1.7-2.5-3.3-4-4.8c-1.5,4-2.4,8.2-2.8,12.5C102,130.2,104.3,127.7,106.3,124.9z"/>
				<path class="st4" d="M106.3,124.9c-1.2-1.7-2.5-3.3-4-4.8c-1.5,4-2.4,8.2-2.8,12.5C102,130.2,104.3,127.7,106.3,124.9z"/>
				<path class="st9" d="M106.3,124.9c-1.2-1.7-2.5-3.3-4-4.8c-1.5,4-2.4,8.2-2.8,12.5C102,130.2,104.3,127.7,106.3,124.9z"/>
				<path class="st2" d="M97.8,142.4c0.7,0.3,1.3,0.5,1.9,0.7c-0.1-0.6-0.2-1.3-0.2-1.9C98.9,141.5,98.4,142,97.8,142.4z"/>
				<path class="st6" d="M97.8,142.4c0.7,0.3,1.3,0.5,1.9,0.7c-0.1-0.6-0.2-1.3-0.2-1.9C98.9,141.5,98.4,142,97.8,142.4z"/>
				<path class="st10" d="M97.8,142.4c0.7,0.3,1.3,0.5,1.9,0.7c-0.1-0.6-0.2-1.3-0.2-1.9C98.9,141.5,98.4,142,97.8,142.4z"/>
				<path class="st3" d="M111.9,135.2c1.3,3.3,2.3,6.8,2.9,10.5c0.2,0,0.4,0,0.7,0c10.9,0,20.9-3.6,29.1-9.5
					c-5.5-2.1-11.4-3.3-17.6-3.3C121.7,132.8,116.6,133.6,111.9,135.2z"/>
				<path class="st6" d="M111.9,135.2c1.3,3.3,2.3,6.8,2.9,10.5c0.2,0,0.4,0,0.7,0c10.9,0,20.9-3.6,29.1-9.5
					c-5.5-2.1-11.4-3.3-17.6-3.3C121.7,132.8,116.6,133.6,111.9,135.2z"/>
				<path class="st16" d="M111.9,135.2c1.3,3.3,2.3,6.8,2.9,10.5c0.2,0,0.4,0,0.7,0c10.9,0,20.9-3.6,29.1-9.5
					c-5.5-2.1-11.4-3.3-17.6-3.3C121.7,132.8,116.6,133.6,111.9,135.2z"/>
				<path class="st2" d="M99.5,141.1c0.1,0.6,0.1,1.3,0.2,1.9c4.7,1.6,9.8,2.5,15,2.6c-0.6-3.6-1.5-7.2-2.9-10.5
					C107.5,136.6,103.3,138.6,99.5,141.1z"/>
				<path class="st3" d="M99.5,141.1c0.1,0.6,0.1,1.3,0.2,1.9c4.7,1.6,9.8,2.5,15,2.6c-0.6-3.6-1.5-7.2-2.9-10.5
					C107.5,136.6,103.3,138.6,99.5,141.1z"/>
				<path class="st6" d="M99.5,141.1c0.1,0.6,0.1,1.3,0.2,1.9c4.7,1.6,9.8,2.5,15,2.6c-0.6-3.6-1.5-7.2-2.9-10.5
					C107.5,136.6,103.3,138.6,99.5,141.1z"/>
				<path class="st9" d="M99.5,141.1c0.1,0.6,0.1,1.3,0.2,1.9c4.7,1.6,9.8,2.5,15,2.6c-0.6-3.6-1.5-7.2-2.9-10.5
					C107.5,136.6,103.3,138.6,99.5,141.1z"/>
			</g>
		</g>
		<rect x="78.1" y="64.1" class="st17" width="10.7" height="16.1"/>
		<rect x="101" y="35.1" class="st17" width="9.5" height="17.9"/>
		<rect x="158" y="45.6" class="st17" width="10.4" height="15.6"/>
		<rect x="141.5" y="169.1" class="st17" width="8.7" height="10.5"/>
		<rect x="167.5" y="120.4" class="st18" width="7.8" height="15.6"/>
		<rect x="180.7" y="59" class="st17" width="6" height="12.1"/>
		<rect x="45.3" y="52" class="st18" width="6.5" height="13.1"/>
		<rect x="47.1" y="149.2" class="st18" width="7.7" height="15.6"/>
		<rect x="37.3" y="93.9" class="st17" width="7.8" height="15.6"/>
		<path class="st19" d="M195.5,87.5L195.5,87.5c-0.1-4-3.3-7.3-7.4-7.3c-4.1,0-7.4,3.3-7.4,7.4c0,0.6,0,14.7,0,14.7s14.4,0,14.8,0
			c4.1,0,7.4-3.3,7.4-7.4C202.9,90.8,199.6,87.5,195.5,87.5z"/>
		<path class="st19" d="M179.6,163.8C179.6,163.8,179.6,163.8,179.6,163.8c4-0.1,7.3-3.4,7.3-7.4c0-4.1-3.3-7.4-7.4-7.4
			c-0.6,0-14.7,0-14.7,0s0,14.4,0,14.8c0,4.1,3.3,7.4,7.4,7.4C176.3,171.1,179.6,167.8,179.6,163.8z"/>
		<path class="st20" d="M75.5,96.5C75.5,96.5,75.5,96.5,75.5,96.5c-4,0-7.3,3.3-7.3,7.4c0,4.1,3.3,7.4,7.4,7.4
			c0.6,0,14.7,0.1,14.7,0.1s0-14.4,0-14.8c0-4.1-3.3-7.4-7.4-7.4C78.8,89.1,75.5,92.4,75.5,96.5z"/>
		<path class="st19" d="M27,134.3C27,134.3,27,134.3,27,134.3c0.1,4,3.4,7.3,7.4,7.3c4.1,0,7.4-3.3,7.4-7.4c0-0.6,0-14.7,0-14.7
			s-14.4,0-14.8,0c-4.1,0-7.4,3.3-7.4,7.4C19.5,131,22.9,134.3,27,134.3z"/>
		<path class="st19" d="M54.7,77.5C54.7,77.5,54.7,77.5,54.7,77.5c-3,0-5.4,2.5-5.4,5.5c0,3,2.4,5.4,5.4,5.4c0.5,0,10.9,0,10.9,0
			s0-10.6,0-10.9c0-3-2.4-5.5-5.5-5.5C57.2,72,54.7,74.4,54.7,77.5z"/>
		<path class="st19" d="M138.6,53.1L138.6,53.1c-0.1-3-2.5-5.4-5.5-5.4c-3,0-5.5,2.5-5.5,5.5c0,0.5,0,10.8,0,10.8s10.6,0,10.9,0
			c3,0,5.5-2.4,5.5-5.4C144,55.6,141.6,53.1,138.6,53.1z"/>
		<path class="st19" d="M171.6,104.3C171.6,104.3,171.6,104.3,171.6,104.3c-0.1-3-2.5-5.4-5.5-5.4c-3,0-5.5,2.5-5.5,5.5
			c0,0.5,0,10.8,0,10.8s10.6,0,10.9,0c3,0,5.5-2.5,5.5-5.5C177,106.8,174.6,104.3,171.6,104.3z"/>
		<path class="st19" d="M71,180.1C71,180.1,71,180.1,71,180.1c0,3,2.5,5.4,5.4,5.4c3,0,5.5-2.5,5.5-5.5c0-0.4,0-10.8,0-10.8
			s-10.7,0-10.9,0c-3,0-5.4,2.4-5.4,5.5C65.5,177.6,67.9,180.1,71,180.1z"/>
		<path class="st21" d="M166.8,84.1c0,3.9-3.2,7.1-7.1,7.1c-3.9,0-7.1-3.2-7.1-7.1c0-3.9,3.2-7.1,7.1-7.1
			C163.6,76.9,166.8,80.1,166.8,84.1z"/>
		<path class="st21" d="M141.1,32.4c0,2.8-2.3,5.1-5.1,5.1c-2.8,0-5.1-2.3-5.1-5.1c0-2.8,2.3-5.1,5.1-5.1
			C138.8,27.2,141.1,29.5,141.1,32.4z"/>
		<path class="st21" d="M61.4,185.6c0,2.8-2.3,5.1-5.1,5.1c-2.8,0-5.1-2.3-5.1-5.1c0-2.8,2.3-5.1,5.1-5.1
			C59.1,180.5,61.4,182.8,61.4,185.6z"/>
		<path class="st21" d="M80.8,39c0,4.8-3.9,8.8-8.8,8.8c-4.8,0-8.8-3.9-8.8-8.8c0-4.8,3.9-8.8,8.8-8.8C76.9,30.2,80.8,34.1,80.8,39z
			"/>
		<path class="st21" d="M31.4,80.2c0,3.3-2.7,5.9-5.9,5.9c-3.3,0-5.9-2.7-5.9-5.9c0-3.3,2.7-5.9,5.9-5.9
			C28.7,74.3,31.4,76.9,31.4,80.2z"/>
		<path class="st21" d="M197.7,133.3c0,3.3-2.7,5.9-5.9,5.9c-3.3,0-5.9-2.6-5.9-5.9c0-3.3,2.6-5.9,5.9-5.9
			C195.1,127.4,197.7,130,197.7,133.3z"/>
		<path class="st22" d="M66.6,125.5c0,1.7-1.4,3.1-3.1,3.1c-1.7,0-3.1-1.4-3.1-3.1c0-1.7,1.4-3.1,3.1-3.1
			C65.2,122.4,66.6,123.8,66.6,125.5z"/>
		<path class="st18" d="M97.8,200.5c0,0-18.3-4.4-18,6.2C80.1,217.2,97.8,216.2,97.8,200.5z"/>
	</g>
</g>
</svg>
