<svg xmlns="http://www.w3.org/2000/svg" xmlns:xlink="http://www.w3.org/1999/xlink" viewBox="0 0 326.5 118.5"><defs><style>.cls-1{fill:none;}.cls-2{isolation:isolate;}.cls-3{fill:#7d6652;}.cls-4{clip-path:url(#clip-path);}.cls-5,.cls-8{fill:#f5b39d;}.cls-12,.cls-6{fill:#ffeeb9;}.cls-19,.cls-7{fill:#debcd9;}.cls-12,.cls-19,.cls-22,.cls-8{mix-blend-mode:soft-light;}.cls-9{fill:#f7beb7;}.cls-10,.cls-22{fill:#bde4f9;}.cls-11{fill:#fad6c4;}.cls-13{fill:#fff5c2;}.cls-14{fill:#fdebda;}.cls-15{fill:#cfe6bf;}.cls-16{fill:#fbd4ad;}.cls-17{fill:#fff3a3;}.cls-18{fill:#fde5b5;}.cls-20{fill:#dfc5de;}.cls-21{fill:#fde6c9;}.cls-23{fill:#fff6e6;}.cls-24{fill:#d1d1d2;}.cls-25{fill:#c0e0c0;}.cls-26{fill:#f0938e;}.cls-27{fill:#d00e37;}.cls-28{fill:#e4c8a9;}.cls-29{fill:#fff;}</style><clipPath id="clip-path"><path class="cls-1" d="M20.5,66.8s6.9-11.6,16.2-5.9C47.6,67.5,53.4,66,54.2,55s-5.6-31.3,0-28,8.3,18.2,7.4,29.5c-0.7,9.2,10-5.7,5.7-20.3s18.2,6.6,3.2,28.3c0,0-1.6,3.6,2.1,1.3,5.4-3.3,8.7-7.7,8.4-16.3s10.3,6.9-.6,19.9c-6.4,7.7-2.1,7.8,6.1,1.8,2.8-2.1,2,9.1-14.4,15.4-13.8,5.3,8.3,21.8-3.9,21.8l-16.7-.2h0c-0.2-13.4,2.6-18.1-6.3-22.5C32.6,79.5,36.4,66.5,20.5,66.8Z"/></clipPath></defs><title>台積電慈善基金會LOGO</title><g class="cls-2"><g id="圖層_1" data-name="圖層 1"><path class="cls-3" d="M143,71.8l-1.7,1.3-1.2-1.5L139,70.1l-15.1,2-0.4.3-0.4.2a1.1,1.1,0,0,1-.7-0.8L122,70.6l3.5-.2,2.8-4.1,2.6-4.1,1.1,0.3,1.1,0.7a34.4,34.4,0,0,1-2.5,3.4l-3,3.5,10.6-1-1.5-1.7-1.5-1.7,0.7-.7a31.7,31.7,0,0,1,3.8,3.1Q141.4,69.9,143,71.8Zm-3.5,11.6h-1.9v-1H127.2v0.8h-1.9V73.8h14.1v9.6Zm-1.9-1.9V74.7H127.2v6.9h10.4Z"/><path class="cls-3" d="M155.3,64.2v0.2l-1.3.3h-1.3v3.4h2.4V69h-2.4a9,9,0,0,0,.9,2.7,19.4,19.4,0,0,0,1.6,2.4l-0.8.7-0.9-1-0.8-1V83.3h-1.7V73.2L150,74.4,149,75.7l-0.5-1.2,1.3-2.8q0.5-1.3.9-2.8h-2V68.1h2.2v-3l-2.2.2-0.2-.8,1.9-.5,2-.5,0.6-.3,0.8-.2a1.8,1.8,0,0,1,.8.5A2,2,0,0,1,155.3,64.2Zm4.9,16.7-0.3.5a13.6,13.6,0,0,0-2.7.8l-2.7.9-0.7-.8,2.2-.9,2-1.3,0.4-.3h0.4l0.8,0.4A1.6,1.6,0,0,1,160.1,80.9Zm7.4-10.6H155.4V69.5h4.9V67.8h-3.7v-1h3.7V65.3h-4.4V64.4h4.4l-0.2-.9-0.2-.8,0.2-.2,0.5-.2,1.5,0.2,0.2,0.5a1.2,1.2,0,0,0-.1.5,2.2,2.2,0,0,0-.1.7v0.2h4.7v0.8h-4.7v1.5h4.2v1h-4.2v1.7h5.4v0.8Zm-1,8.9H156.3V71.1h10.3v8.1Zm-1.9-5.7V72h-6.6v1.5h6.6Zm0,2.4V74.3h-6.6v1.5h6.6Zm0,2.5V76.7h-6.6v1.7h6.6Zm3.5,3.9-0.7.8-2.8-1.2L162,80.6l1.5-1.2,2.3,1.4Z"/><path class="cls-3" d="M193.4,69.3h-1.9v-3h-7.1v5h-1.9v-5h-6.7v3H174v-4h8.6V63.9h-6.4V63.1h15.1v0.8h-6.9v1.3h8.9v4Zm1,9.9-0.3,1a2.9,2.9,0,0,1-.5,1l-1,.8-1,.4h-6.7a1.7,1.7,0,0,1-1.9-1.2,6.9,6.9,0,0,1-.3-2.2h-5v1h-1.9V72.5h16v6.6h-7.2v1a1.6,1.6,0,0,0,.2,1.1,1.3,1.3,0,0,0,1.2.4h4.4a1.7,1.7,0,0,0,1.7-1.1l0.7-1.9ZM181.6,68.8h-4.7V67.9h4.7v0.8Zm0,2.2h-4.7V70.1h4.7V71Zm1,4.4v-2h-5v2h5Zm0,2.9v-2h-5v2h5Zm7.2-2.9v-2h-5.4v2h5.4Zm0,2.9v-2h-5.4v2h5.4Zm1-9.4h-5V67.9h5v0.8Zm0,2.2h-5V70.1h5V71Z"/><path class="cls-3" d="M203.3,78.7l-1,2.2a19.3,19.3,0,0,1-1,2.2l-1.7-1,1.3-1.9,1.3-1.9Zm16.8-12.1h-5l0.8,0.3,0.6,0.5L215,69l-1.7,1.8,1.5,1.2,1.2-1.4a2.5,2.5,0,0,1,1.3-.9h0.8l0.8,0.4a0.8,0.8,0,0,1-.1.3l-0.3.3a15.1,15.1,0,0,0-2.4,2.1L214,75.4l3.5-.5-0.7-1.5,1-.3,1.1,1.6,1.1,1.8-1.7.8-0.3-.8-0.3-.6-6.2.8-0.4.2-0.4.2h-0.3l-0.3-.5a1.6,1.6,0,0,1-.1-0.5,0.9,0.9,0,0,1,.1-0.4h1.9l1.7-2-1.9-1.7L210,70l0.7-1,1.7,1a11,11,0,0,1,1.3-1.7,3.7,3.7,0,0,0,.8-1.7H199.7V65.8h6.6l-1.1-1.3-1.1-1.2,1-.8,1.7,1.1,1.7,1.3-1.3,1H212l-0.2-.5,0.9-1.3,0.9-1.3,0.3-.3h0.4l1.1,0.3a1,1,0,0,1,.8.8,0.1,0.1,0,0,1-.2.2l-0.2.2a4.1,4.1,0,0,0-1.3.8l-1.1,1h6.6v0.8Zm-9.9,10.3-1.7.7L208.1,76l-6.2,1.2h-1.7l-0.2-1.2a0.5,0.5,0,0,1,.3-0.3l0.5-.3h2l1.3-1.9-1.8-1.8-1.9-1.6,0.7-1,1.5,0.8a8.8,8.8,0,0,1,.9-1.7,2.4,2.4,0,0,1,1.4-1.2l0.8,0.2,0.8,0.5v0.3a3.3,3.3,0,0,0-1.5,1.1l-1.3,1.4,1.5,1.3,1-1.7a2.1,2.1,0,0,1,1.5-1l1.2,0.8a0.5,0.5,0,0,1-.2.3l-0.3.3-4,4.5,3.2-.3L207,73.7l1-.5,1.1,1.7A17.3,17.3,0,0,1,210.2,76.9Zm6.1,3.2a16.5,16.5,0,0,1-.6,1.8,3.2,3.2,0,0,1-1.1,1.4h-8.1l-0.9-.3a1,1,0,0,1-.6-0.6V80.9q0-.8-0.1-1.6a4.9,4.9,0,0,0-.3-1.3l0.2-.2,0.2-.2h1.2a0.8,0.8,0,0,1,.8.8,0.5,0.5,0,0,0-.1.3,0.8,0.8,0,0,0-.1.3v2.7a0.4,0.4,0,0,0,.2.4h5.4a1.5,1.5,0,0,0,1.5-1,12.7,12.7,0,0,0,.3-2Zm-3.9-.3L211,81.1l-1.2-1.3-1.2-1.2,0.8-.8,1.4,0.8Zm8.2,2-1.7,1.3-1.2-2.4-1.2-2.3,1.2-.5,1.4,1.9Z"/><path class="cls-3" d="M246.1,76H225.7V75.2h5.6l-0.8-1.3-0.8-1.3h-3.4V71.6h8.6V69.3h-6.4v-1h6.4V66.6h-8.4V65.8h19.2v0.8h-9.1v1.7h6.7v1h-6.7v2.4h9.1v0.8h-3.9l-1.9,2.7h6.2V76Zm-3.2,7.2h-1.9V82.4H230.6v0.8h-1.9V77.2h14.1v6.1Zm-8.6-18.7-1.7,1-1.2-1.4-1.2-1.1,0.8-.8,1.6,1.1Zm6.7,17V78H230.6v3.5h10.4Zm-6.2-6.4V72.5h-3.4l0.9,1.3,0.9,1.3h1.5Zm4.7-2.7h-3v2.7h1.7a2,2,0,0,1,.4-0.7L239,74a3,3,0,0,1,.3-0.8Zm1.9-9.3-1.3,1L239,65.4l-1.3-.5,1.7-2.5Z"/><path class="cls-3" d="M272.3,79.4l-0.7,1a21.1,21.1,0,0,1-4-2.7,31.8,31.8,0,0,1-3.4-3.4h-5.4a20.7,20.7,0,0,1-3.4,3.3,27.5,27.5,0,0,1-3.9,2.6l-0.4-.7,2.9-2.4,2.5-2.8h-5.4V73.5h5.2V66.6h-4.2V65.8h4.2V64.1l-0.2-.4a0.8,0.8,0,0,1-.2-0.4,0.3,0.3,0,0,1,.2-0.3h0.3l1.9,0.3v0.5a1.9,1.9,0,0,0-.1.6,3.2,3.2,0,0,0-.1.8v0.7h6.7V64.1l-0.2-.8a0.2,0.2,0,0,1,0-.3h1.2a1,1,0,0,1,.8.3l0.2,0.5a3.1,3.1,0,0,0-.1.8,4.7,4.7,0,0,0-.1.9v0.3h3.9v0.8h-3.9v6.9h4.9v0.8h-5a11.6,11.6,0,0,0,2.4,2.8A21.1,21.1,0,0,0,272.3,79.4Zm-2.2,3.4h-17v-1h7.6V79.2h-4.5V78.4h4.5V76.9l-0.2-.4a0.8,0.8,0,0,1-.2-0.4,0.3,0.3,0,0,1,.1-0.3h1.5a0.8,0.8,0,0,1,.8.8,1.5,1.5,0,0,0-.2.7,1.4,1.4,0,0,0,0,.7v0.7h4.4v0.8h-4.4v2.5h7.6v1Zm-5-14.6V66.6h-6.7v1.5h6.7Zm0,2.5V69h-6.7v1.7h6.7Zm0,2.9V71.6h-6.7v1.9h6.7Z"/><path class="cls-3" d="M298,71.8l-0.7,1a38.6,38.6,0,0,1-5.1-3.1,23.9,23.9,0,0,1-4.1-4.1,23.1,23.1,0,0,1-4.8,4.1,57.5,57.5,0,0,1-5.6,3.1l-0.3-.8a21.3,21.3,0,0,0,9.8-9.1h2a14.3,14.3,0,0,0,3.5,5.2A20.8,20.8,0,0,0,298,71.8Zm-0.7,10.9H277.9v-1H287V75.7h-6.9V74.8H287V71.5h-4V70.6h9.6v0.8h-3.7v3.4h6.6v0.8h-6.6v6.1h8.4v1Zm-11.4-2.4-1.9,1a13.6,13.6,0,0,0-1.2-2.2,11.2,11.2,0,0,0-1.3-1.9l0.8-.8a14.8,14.8,0,0,1,1.8,1.9Zm8.6-2.7-3.9,3.9-0.8-.5a13.6,13.6,0,0,1,1.2-1.9,9.2,9.2,0,0,0,1-1.9l0.2-.5,0.3-.2,0.9,0.4Z"/><path class="cls-3" d="M323.6,67.8L323.1,69a52.5,52.5,0,0,1-5-2,35.8,35.8,0,0,1-4.5-2.5L308.8,67a15,15,0,0,1-4.8,1.8l-0.5-.3-0.3-.5a35.1,35.1,0,0,0,5-2.3,25.6,25.6,0,0,0,4.5-3.3h1.5a17.1,17.1,0,0,0,4.4,3.3A44.4,44.4,0,0,0,323.6,67.8Zm-1.5,7.7H304.8V70.3h17.3v5.2Zm-12.5-.8-0.8-1.5a8.9,8.9,0,0,1-.7-1.5l0.5-.5h-2.2v3.5h3.2Zm10.3,8.4h-1.9V82.3h-9.8v0.8h-1.9V76.5h13.5v6.6Zm-1-14.5H308V67.8h10.9v0.8Zm-0.8,10.4V77.4h-9.8v1.7h9.8Zm0,2.4V79.9h-9.8v1.5h9.8Zm-5.7-6.7V71.1h-3.2l1.1,1.2,1.3,1.2-1.3,1.2h2.2Zm7.9,0V71.1h-2.2l1.2,0.8v0.3l-1.4,1-1.3,1.2-0.8-.3a10.2,10.2,0,0,1,.8-1.5,3.7,3.7,0,0,0,.7-1.5h-3.2v3.5h6.2Z"/><path class="cls-3" d="M107.4,95.4h10.8l0.3,4.3H118a6.8,6.8,0,0,0-1.2-3,2.4,2.4,0,0,0-1.9-.8h-1v11.7h2.3v0.5h-6.8v-0.5h2.3V95.9h-1a2.4,2.4,0,0,0-1.9.8,6.8,6.8,0,0,0-1.2,3H107Z"/><path class="cls-3" d="M127.8,95.2v3.3h-0.4q-0.9-3-3.3-3a2.8,2.8,0,0,0-2.1.7,2.2,2.2,0,0,0-.7,1.5,1.6,1.6,0,0,0,.6,1.2,4.9,4.9,0,0,0,2.2.8,10,10,0,0,1,2.5.7,3.4,3.4,0,0,1,1.4,1.3,4,4,0,0,1,.6,2.1,4.3,4.3,0,0,1-1.2,3.1,4.1,4.1,0,0,1-3,1.2,4.9,4.9,0,0,1-2.9-1.1l-0.9.8h-0.3v-3.5h0.4a5.4,5.4,0,0,0,1.6,2.5,3.3,3.3,0,0,0,2.2.8,3.4,3.4,0,0,0,2.2-.8,2.4,2.4,0,0,0,1-2,2.3,2.3,0,0,0-.7-1.7,4.1,4.1,0,0,0-2.2-.9l-2.4-.6a3.2,3.2,0,0,1-1.4-1.2,3.3,3.3,0,0,1-.6-1.9,3.7,3.7,0,0,1,1-2.6,3.6,3.6,0,0,1,2.8-1.1,4.5,4.5,0,0,1,2.7.9l0.6-.8h0.4Z"/><path class="cls-3" d="M130.4,95.4h4.6l2.7,9h0l2.7-9h4.4v0.5H143v11.7h1.9v0.5h-6v-0.5h1.9V95.6h0L137,108.1h-0.4l-3.8-12.4h0v11.9h1.9v0.5h-4.3v-0.5h1.9V95.9h-1.9V95.4Z"/><path class="cls-3" d="M156.2,95.2V99h-0.4q-0.7-3.4-3.4-3.4a2.3,2.3,0,0,0-2.2,1.2q-0.7,1.2-.7,4.9a19.4,19.4,0,0,0,.3,4.2,2.6,2.6,0,0,0,1,1.6,2.8,2.8,0,0,0,1.6.5,3.2,3.2,0,0,0,2.1-.9,5.6,5.6,0,0,0,1.5-2.7h0.4l-0.2,3.9H156a2.5,2.5,0,0,0-.7-1,4.5,4.5,0,0,1-6.7-.7,6.8,6.8,0,0,1-1.7-4.7,7.2,7.2,0,0,1,1.6-4.8,4.8,4.8,0,0,1,3.8-2,4.1,4.1,0,0,1,2.9,1.2l0.6-1h0.4Z"/><path class="cls-3" d="M172.4,95.2V99H172q-0.7-3.4-3.4-3.4a2.3,2.3,0,0,0-2.2,1.2q-0.7,1.2-.7,4.9a19.4,19.4,0,0,0,.3,4.2,2.6,2.6,0,0,0,1,1.6,2.8,2.8,0,0,0,1.6.5,3.2,3.2,0,0,0,2.1-.9,5.6,5.6,0,0,0,1.5-2.7h0.4l-0.2,3.9h-0.4a2.5,2.5,0,0,0-.7-1,4.5,4.5,0,0,1-6.7-.7,6.8,6.8,0,0,1-1.7-4.7,7.2,7.2,0,0,1,1.6-4.8,4.8,4.8,0,0,1,3.8-2,4.1,4.1,0,0,1,2.9,1.2l0.6-1h0.4Z"/><path class="cls-3" d="M175.7,107.6V95.9h-1.5V95.4h3.3v7.1h0a2.9,2.9,0,0,1,2.7-1.8,2.8,2.8,0,0,1,1.3.4,1.6,1.6,0,0,1,.8,1,8.7,8.7,0,0,1,.2,2.1v3.6h1.2v0.5h-4.3v-0.5h1.2v-3.8a19.2,19.2,0,0,0-.1-2.2,0.7,0.7,0,0,0-.9-0.6,1.7,1.7,0,0,0-1.4.7,3.6,3.6,0,0,0-.7,1.4,12.2,12.2,0,0,0-.2,2.4v2.1h1.2v0.5h-4.4v-0.5h1.3Z"/><path class="cls-3" d="M190.1,103.8v-1a3.9,3.9,0,0,0-.2-1.6,1.1,1.1,0,0,0-1-.4q-1.5,0-1.5.6a0.7,0.7,0,0,0,.1.4,0.9,0.9,0,0,1,.1.5,0.7,0.7,0,0,1-.3.6l-0.6.2a0.8,0.8,0,0,1-.6-0.3,0.9,0.9,0,0,1-.2-0.6,1.5,1.5,0,0,1,.9-1.3,4.9,4.9,0,0,1,2.5-.5,4.4,4.4,0,0,1,1.9.3,1.3,1.3,0,0,1,.7.7,4.3,4.3,0,0,1,.1,1.2v3.5a2.4,2.4,0,0,0,.1,1l0.3,0.2a0.9,0.9,0,0,0,.7-0.5h0.2a1.5,1.5,0,0,1-1.6,1.4,1.5,1.5,0,0,1-1.6-1.5,3.2,3.2,0,0,1-2.6,1.5,2.2,2.2,0,0,1-1.6-.5,1.7,1.7,0,0,1-.6-1.3Q185.4,104,190.1,103.8Zm0,1.5v-1a4.2,4.2,0,0,0-2.3.5,1.6,1.6,0,0,0-.6,1.3,1.4,1.4,0,0,0,.3,1,1,1,0,0,0,.8.3,1.5,1.5,0,0,0,1-.4,2,2,0,0,0,.6-0.8A2.9,2.9,0,0,0,190.1,105.3Z"/><path class="cls-3" d="M195.8,107.6v-6.5h-1.5v-0.5h3.4v1.8h0q0.7-1.8,2-1.8a1.2,1.2,0,0,1,.9.3,1.1,1.1,0,0,1,.3.8,1,1,0,0,1-.3.7,1,1,0,0,1-.7.3,0.7,0.7,0,0,1-.8-0.8v-0.4a0.2,0.2,0,0,0-.2-0.2,1.4,1.4,0,0,0-.8.8,5.3,5.3,0,0,0-.5,2.6v2.9h1.6v0.5h-4.9v-0.5h1.5Z"/><path class="cls-3" d="M204.8,100.5v7.1h1.2v0.5h-4.4v-0.5H203v-6.5h-1.3v-0.5h3.2Zm-1.9-3.6a1,1,0,0,1,.3-0.7,1,1,0,0,1,.7-0.3,1,1,0,0,1,.7.3,1,1,0,0,1,.3.7,1,1,0,0,1-.3.7,1,1,0,0,1-.7.3A1,1,0,0,1,202.9,96.8Z"/><path class="cls-3" d="M210.4,98.5v2.2h2.2v0.5h-2.2v4.7a4.8,4.8,0,0,0,.1,1.4,0.7,0.7,0,0,0,.7.4,1.5,1.5,0,0,0,.9-0.3,1.8,1.8,0,0,0,.6-0.9h0.4a2.4,2.4,0,0,1-2.6,1.8,2.2,2.2,0,0,1-1.4-.3,1.4,1.4,0,0,1-.5-0.8,7,7,0,0,1-.1-1.3v-4.6h-1.7v-0.5h1.7v-2Z"/><path class="cls-3" d="M217.2,101.1l2.7,5.2,2.3-5.2h-1.6v-0.5h3.4v0.5h-1.3l-3.8,8.6a13.6,13.6,0,0,1-1.4,2.6,1.7,1.7,0,0,1-1.4.7,1,1,0,0,1-.8-0.3,1.1,1.1,0,0,1-.3-0.7,0.8,0.8,0,0,1,.2-0.6l0.6-.2a0.8,0.8,0,0,1,.7.4,0.7,0.7,0,0,0,.4.4,0.8,0.8,0,0,0,.5-0.5l0.9-1.8,0.6-1.4-3.7-7.3h-1.1v-0.5h4.6v0.5h-1.4Z"/><path class="cls-3" d="M232,107.6V95.9h-2V95.4h10.7l0.2,3.8h-0.4a8.7,8.7,0,0,0-.3-1.3,2.9,2.9,0,0,0-1-1.6,3.8,3.8,0,0,0-2.2-.5h-2.8v5.5h1.8a1.4,1.4,0,0,0,.8-0.6,3.4,3.4,0,0,0,.4-1.6h0.5v5.4h-0.5a4.3,4.3,0,0,0-.4-1.8,1.3,1.3,0,0,0-.8-0.7h-1.9v5.8h2.2v0.5H230v-0.5h2Z"/><path class="cls-3" d="M240.7,104.3a3.8,3.8,0,0,1,1.1-2.8,3.8,3.8,0,0,1,2.8-1.1,3.8,3.8,0,0,1,2.8,1.1,3.7,3.7,0,0,1,1.1,2.8,3.9,3.9,0,0,1-1.2,2.9,3.8,3.8,0,0,1-2.8,1.2,3.7,3.7,0,0,1-2.7-1.1A3.9,3.9,0,0,1,240.7,104.3Zm5.7,0a13.9,13.9,0,0,0-.1-2.3,1.5,1.5,0,0,0-.5-0.9,1.8,1.8,0,0,0-1.1-.3,1.8,1.8,0,0,0-1.1.3,1.4,1.4,0,0,0-.5.9,15.7,15.7,0,0,0-.1,2.3,13.1,13.1,0,0,0,.1,2.3,1.5,1.5,0,0,0,.6.9,1.8,1.8,0,0,0,1.1.3,1.8,1.8,0,0,0,1.1-.3,1.4,1.4,0,0,0,.6-0.9A14.3,14.3,0,0,0,246.4,104.3Z"/><path class="cls-3" d="M258.1,100.6v7h1.3v0.5h-3.1v-1.8h0a2.8,2.8,0,0,1-2.7,1.8,2.5,2.5,0,0,1-1.7-.6,3.1,3.1,0,0,1-.6-2.3v-4.2h-1.4v-0.5H253v5a6.2,6.2,0,0,0,.1,1.6,0.7,0.7,0,0,0,.7.4,2.1,2.1,0,0,0,1.6-.9,4.5,4.5,0,0,0,.7-2.8v-2.8h-1.5v-0.5h3.4Z"/><path class="cls-3" d="M261.8,107.6v-6.5h-1.3v-0.5h3.2v1.8h0a3,3,0,0,1,2.8-1.9,2.1,2.1,0,0,1,1.4.4,2.2,2.2,0,0,1,.7,1,6.1,6.1,0,0,1,.2,1.8v4h1.5v0.5h-4.6v-0.5h1.3v-4.7a5.6,5.6,0,0,0-.1-1.5,0.7,0.7,0,0,0-.7-0.4,2.1,2.1,0,0,0-1.7.9,4,4,0,0,0-.7,2.5v3.2h1.2v0.5h-4.4v-0.5h1.3Z"/><path class="cls-3" d="M278.9,95.2v12.4h1.3v0.5H277v-1.6h0a2.5,2.5,0,0,1-2.4,1.7,3,3,0,0,1-2.4-1.2,4,4,0,0,1-1-2.7,4.1,4.1,0,0,1,1.1-2.8,3.3,3.3,0,0,1,2.5-1.2,2.3,2.3,0,0,1,2.2,1.3h0V95.9h-1.7V95.4h3.6Zm-4.1,5.6a1.2,1.2,0,0,0-1.3.8,11.9,11.9,0,0,0-.3,3.1,6,6,0,0,0,.3,2.6,1.2,1.2,0,0,0,1.1.5,2,2,0,0,0,1.4-.5,2.5,2.5,0,0,0,.8-1.2,9.4,9.4,0,0,0,.2-2.2,3.5,3.5,0,0,0-.6-2.2A2,2,0,0,0,274.8,100.8Z"/><path class="cls-3" d="M286.4,103.8v-1a3.9,3.9,0,0,0-.2-1.6,1.1,1.1,0,0,0-1-.4q-1.5,0-1.5.6a0.7,0.7,0,0,0,.1.4,0.9,0.9,0,0,1,.1.5,0.7,0.7,0,0,1-.3.6l-0.6.2a0.8,0.8,0,0,1-.6-0.3,0.9,0.9,0,0,1-.2-0.6,1.5,1.5,0,0,1,.9-1.3,4.9,4.9,0,0,1,2.5-.5,4.4,4.4,0,0,1,1.9.3,1.3,1.3,0,0,1,.7.7,4.3,4.3,0,0,1,.1,1.2v3.5a2.4,2.4,0,0,0,.1,1l0.3,0.2a0.9,0.9,0,0,0,.7-0.5h0.2a1.5,1.5,0,0,1-1.6,1.4,1.5,1.5,0,0,1-1.6-1.5,3.2,3.2,0,0,1-2.6,1.5,2.2,2.2,0,0,1-1.6-.5,1.7,1.7,0,0,1-.6-1.3Q281.6,104,286.4,103.8Zm0,1.5v-1a4.2,4.2,0,0,0-2.3.5,1.6,1.6,0,0,0-.6,1.3,1.4,1.4,0,0,0,.3,1,1,1,0,0,0,.8.3,1.5,1.5,0,0,0,1-.4,2,2,0,0,0,.6-0.8A2.9,2.9,0,0,0,286.4,105.3Z"/><path class="cls-3" d="M294,98.5v2.2h2.2v0.5H294v4.7a4.8,4.8,0,0,0,.1,1.4,0.7,0.7,0,0,0,.7.4,1.5,1.5,0,0,0,.9-0.3,1.8,1.8,0,0,0,.6-0.9h0.4a2.4,2.4,0,0,1-2.6,1.8,2.2,2.2,0,0,1-1.4-.3,1.4,1.4,0,0,1-.5-0.8,7,7,0,0,1-.1-1.3v-4.6h-1.7v-0.5h1.7v-2Z"/><path class="cls-3" d="M300.9,100.5v7.1h1.2v0.5h-4.4v-0.5h1.3v-6.5h-1.3v-0.5h3.2ZM299,96.8a1,1,0,0,1,.3-0.7,1,1,0,0,1,1.4,0,1,1,0,0,1,.3.7,1,1,0,0,1-.3.7,1,1,0,0,1-.7.3A1,1,0,0,1,299,96.8Z"/><path class="cls-3" d="M303.3,104.3a3.8,3.8,0,0,1,1.1-2.8,3.8,3.8,0,0,1,2.8-1.1,3.8,3.8,0,0,1,2.8,1.1,3.7,3.7,0,0,1,1.1,2.8,3.9,3.9,0,0,1-1.2,2.9,3.8,3.8,0,0,1-2.8,1.2,3.7,3.7,0,0,1-2.7-1.1A3.9,3.9,0,0,1,303.3,104.3Zm5.7,0a13.9,13.9,0,0,0-.1-2.3,1.5,1.5,0,0,0-.5-0.9,1.8,1.8,0,0,0-1.1-.3,1.8,1.8,0,0,0-1.1.3,1.4,1.4,0,0,0-.5.9,15.8,15.8,0,0,0-.1,2.3,13.1,13.1,0,0,0,.1,2.3,1.5,1.5,0,0,0,.6.9,1.8,1.8,0,0,0,1.1.3,1.8,1.8,0,0,0,1.1-.3,1.4,1.4,0,0,0,.6-0.9A14.3,14.3,0,0,0,309,104.3Z"/><path class="cls-3" d="M313.9,107.6v-6.5h-1.3v-0.5h3.2v1.8h0a3,3,0,0,1,2.8-1.9,2.1,2.1,0,0,1,1.4.4,2.2,2.2,0,0,1,.7,1,6.1,6.1,0,0,1,.2,1.8v4h1.5v0.5h-4.6v-0.5H319v-4.7a5.6,5.6,0,0,0-.1-1.5,0.7,0.7,0,0,0-.7-0.4,2.1,2.1,0,0,0-1.7.9,4,4,0,0,0-.7,2.5v3.2H317v0.5h-4.4v-0.5h1.3Z"/><g class="cls-4"><path class="cls-5" d="M51.4,73.4a29.3,29.3,0,0,1-4.2-2A29.4,29.4,0,0,1,8.5,63a29.5,29.5,0,0,0,33,45.1A29.4,29.4,0,0,1,51.4,73.4Z"/><path class="cls-6" d="M111.3,70.2A29.5,29.5,0,0,0,91.2,42.2a29.8,29.8,0,0,1,.2,3.7A29.4,29.4,0,0,1,79.4,69.7a29.5,29.5,0,0,1,18.8,25A29.4,29.4,0,0,0,111.3,70.2Z"/><path class="cls-7" d="M32.5,50.5h0.4a29.9,29.9,0,0,1-.4-4.6A29.5,29.5,0,0,1,47.2,20.4,29.5,29.5,0,0,0,8.5,63,29.4,29.4,0,0,1,32.5,50.5Z"/><path class="cls-8" d="M32.5,75.4a29.3,29.3,0,0,0,14.8-4A29.5,29.5,0,0,1,32.9,50.5H32.5A29.4,29.4,0,0,0,8.5,63,29.4,29.4,0,0,0,32.5,75.4Z"/><path class="cls-9" d="M32.5,75.4a29.3,29.3,0,0,0,14.8-4A29.5,29.5,0,0,1,32.9,50.5H32.5A29.4,29.4,0,0,0,8.5,63,29.4,29.4,0,0,0,32.5,75.4Z"/><path class="cls-10" d="M60.2,90.1a29.5,29.5,0,0,1-18.7,18A29.5,29.5,0,0,0,98.3,97.2c0-.9,0-1.7-0.1-2.5A29.4,29.4,0,0,1,60.2,90.1Z"/><path class="cls-8" d="M60.2,90.1a29.4,29.4,0,0,1-7.6-16.3l-1.2-.4a29.4,29.4,0,0,0-10,34.7A29.5,29.5,0,0,0,60.2,90.1Z"/><path class="cls-11" d="M60.2,90.1a29.4,29.4,0,0,1-7.6-16.3l-1.2-.4a29.4,29.4,0,0,0-10,34.7A29.5,29.5,0,0,0,60.2,90.1Z"/><path class="cls-12" d="M79.4,69.7A29.4,29.4,0,0,1,62,75.4H61.6A28.1,28.1,0,0,1,62,80a29.1,29.1,0,0,1-1.8,10.1,29.4,29.4,0,0,0,38.1,4.5A29.5,29.5,0,0,0,79.4,69.7Z"/><path class="cls-13" d="M79.4,69.7A29.4,29.4,0,0,1,62,75.4H61.6A28.1,28.1,0,0,1,62,80a29.1,29.1,0,0,1-1.8,10.1,29.4,29.4,0,0,0,38.1,4.5A29.5,29.5,0,0,0,79.4,69.7Z"/><path class="cls-8" d="M60.2,90.1A29.1,29.1,0,0,0,62,80a28.1,28.1,0,0,0-.4-4.6,28.8,28.8,0,0,1-9-1.5A29.4,29.4,0,0,0,60.2,90.1Z"/><path class="cls-12" d="M60.2,90.1A29.1,29.1,0,0,0,62,80a28.1,28.1,0,0,0-.4-4.6,28.8,28.8,0,0,1-9-1.5A29.4,29.4,0,0,0,60.2,90.1Z"/><path class="cls-14" d="M60.2,90.1A29.1,29.1,0,0,0,62,80a28.1,28.1,0,0,0-.4-4.6,28.8,28.8,0,0,1-9-1.5A29.4,29.4,0,0,0,60.2,90.1Z"/><path class="cls-15" d="M62,45.9c0,0.9-.1,1.8-0.1,2.6a29.3,29.3,0,0,1,29.4-6.3,29.4,29.4,0,0,0-44-21.8A29.5,29.5,0,0,1,62,45.9Z"/><path class="cls-8" d="M52.3,70.2c0-.9.1-1.8,0.1-2.6a30,30,0,0,1-5.2,3.9,29.3,29.3,0,0,0,4.2,2l1-.7C52.4,71.8,52.3,71,52.3,70.2Z"/><path class="cls-16" d="M52.3,70.2c0-.9.1-1.8,0.1-2.6a30,30,0,0,1-5.2,3.9,29.3,29.3,0,0,0,4.2,2l1-.7C52.4,71.8,52.3,71,52.3,70.2Z"/><path class="cls-12" d="M61.9,48.5A29.4,29.4,0,0,1,56.5,63a29.7,29.7,0,0,1,3.3,6.2,29.2,29.2,0,0,1,19.5.6A29.4,29.4,0,0,0,91.5,45.9a29.8,29.8,0,0,0-.2-3.7A29.3,29.3,0,0,0,61.9,48.5Z"/><path class="cls-17" d="M61.9,48.5A29.4,29.4,0,0,1,56.5,63a29.7,29.7,0,0,1,3.3,6.2,29.2,29.2,0,0,1,19.5.6A29.4,29.4,0,0,0,91.5,45.9a29.8,29.8,0,0,0-.2-3.7A29.3,29.3,0,0,0,61.9,48.5Z"/><path class="cls-8" d="M52.5,67.5c-0.1.9-.1,1.7-0.1,2.6s0.1,1.7.1,2.5a29.9,29.9,0,0,1,7.4-3.6A29.7,29.7,0,0,0,56.5,63,30.3,30.3,0,0,1,52.5,67.5Z"/><path class="cls-12" d="M52.5,67.5c-0.1.9-.1,1.7-0.1,2.6s0.1,1.7.1,2.5a29.9,29.9,0,0,1,7.4-3.6A29.7,29.7,0,0,0,56.5,63,30.3,30.3,0,0,1,52.5,67.5Z"/><path class="cls-18" d="M52.5,67.5c-0.1.9-.1,1.7-0.1,2.6s0.1,1.7.1,2.5a29.9,29.9,0,0,1,7.4-3.6A29.7,29.7,0,0,0,56.5,63,30.3,30.3,0,0,1,52.5,67.5Z"/><path class="cls-19" d="M32.5,45.9a29.9,29.9,0,0,0,.4,4.6,29.3,29.3,0,0,1,21.3,9.5,29.4,29.4,0,0,1,7.7-11.5c0.1-.9.1-1.7,0.1-2.6A29.5,29.5,0,0,0,47.2,20.4,29.5,29.5,0,0,0,32.5,45.9Z"/><path class="cls-20" d="M32.5,45.9a29.9,29.9,0,0,0,.4,4.6,29.3,29.3,0,0,1,21.3,9.5,29.4,29.4,0,0,1,7.7-11.5c0.1-.9.1-1.7,0.1-2.6A29.5,29.5,0,0,0,47.2,20.4,29.5,29.5,0,0,0,32.5,45.9Z"/><path class="cls-8" d="M54.2,60.1a29.3,29.3,0,0,0-21.3-9.5A29.5,29.5,0,0,0,47.2,71.4a30,30,0,0,0,5.2-3.9A29.5,29.5,0,0,1,54.2,60.1Z"/><path class="cls-19" d="M54.2,60.1a29.3,29.3,0,0,0-21.3-9.5A29.5,29.5,0,0,0,47.2,71.4a30,30,0,0,0,5.2-3.9A29.5,29.5,0,0,1,54.2,60.1Z"/><path class="cls-21" d="M54.2,60.1a29.3,29.3,0,0,0-21.3-9.5A29.5,29.5,0,0,0,47.2,71.4a30,30,0,0,0,5.2-3.9A29.5,29.5,0,0,1,54.2,60.1Z"/><path class="cls-12" d="M61.9,48.5a29.4,29.4,0,0,0-7.7,11.5A27.6,27.6,0,0,1,56.5,63,29.4,29.4,0,0,0,61.9,48.5Z"/><path class="cls-19" d="M61.9,48.5a29.4,29.4,0,0,0-7.7,11.5A27.6,27.6,0,0,1,56.5,63,29.4,29.4,0,0,0,61.9,48.5Z"/><path class="cls-13" d="M61.9,48.5a29.4,29.4,0,0,0-7.7,11.5A27.6,27.6,0,0,1,56.5,63,29.4,29.4,0,0,0,61.9,48.5Z"/><path class="cls-8" d="M56.5,63a27.6,27.6,0,0,0-2.4-2.9,29.5,29.5,0,0,0-1.7,7.5A30.3,30.3,0,0,0,56.5,63Z"/><path class="cls-12" d="M56.5,63a27.6,27.6,0,0,0-2.4-2.9,29.5,29.5,0,0,0-1.7,7.5A30.3,30.3,0,0,0,56.5,63Z"/><path class="cls-19" d="M56.5,63a27.6,27.6,0,0,0-2.4-2.9,29.5,29.5,0,0,0-1.7,7.5A30.3,30.3,0,0,0,56.5,63Z"/><path class="cls-14" d="M56.5,63a27.6,27.6,0,0,0-2.4-2.9,29.5,29.5,0,0,0-1.7,7.5A30.3,30.3,0,0,0,56.5,63Z"/><path class="cls-8" d="M51.4,73.4l1.2,0.4V72.7Z"/><path class="cls-22" d="M51.4,73.4l1.2,0.4V72.7Z"/><path class="cls-15" d="M51.4,73.4l1.2,0.4V72.7Z"/><path class="cls-12" d="M59.9,69.1a29,29,0,0,1,1.7,6.3H62a29.4,29.4,0,0,0,17.4-5.7A29.2,29.2,0,0,0,59.9,69.1Z"/><path class="cls-22" d="M59.9,69.1a29,29,0,0,1,1.7,6.3H62a29.4,29.4,0,0,0,17.4-5.7A29.2,29.2,0,0,0,59.9,69.1Z"/><path class="cls-23" d="M59.9,69.1a29,29,0,0,1,1.7,6.3H62a29.4,29.4,0,0,0,17.4-5.7A29.2,29.2,0,0,0,59.9,69.1Z"/><path class="cls-8" d="M52.5,72.7v1.2a28.8,28.8,0,0,0,9,1.5,29,29,0,0,0-1.7-6.3A29.9,29.9,0,0,0,52.5,72.7Z"/><path class="cls-12" d="M52.5,72.7v1.2a28.8,28.8,0,0,0,9,1.5,29,29,0,0,0-1.7-6.3A29.9,29.9,0,0,0,52.5,72.7Z"/><path class="cls-22" d="M52.5,72.7v1.2a28.8,28.8,0,0,0,9,1.5,29,29,0,0,0-1.7-6.3A29.9,29.9,0,0,0,52.5,72.7Z"/><path class="cls-14" d="M52.5,72.7v1.2a28.8,28.8,0,0,0,9,1.5,29,29,0,0,0-1.7-6.3A29.9,29.9,0,0,0,52.5,72.7Z"/></g><rect class="cls-24" x="39.7" y="26.6" width="6.4" height="9.63"/><rect class="cls-24" x="53.4" y="9.2" width="5.7" height="10.68"/><rect class="cls-24" x="87.4" y="15.5" width="6.2" height="9.34"/><rect class="cls-24" x="77.6" y="89.4" width="5.2" height="6.31"/><rect class="cls-25" x="93.2" y="60.3" width="4.7" height="9.34"/><rect class="cls-24" x="101" y="23.6" width="3.6" height="7.26"/><rect class="cls-25" x="20.1" y="19.4" width="3.9" height="7.84"/><rect class="cls-25" x="21.1" y="77.5" width="4.6" height="9.35"/><rect class="cls-24" x="15.3" y="44.4" width="4.6" height="9.34"/><path class="cls-26" d="M109.9,40.6h0a4.4,4.4,0,0,0-8.9.1v8.8h8.9A4.4,4.4,0,1,0,109.9,40.6Z"/><path class="cls-26" d="M100.4,86.2h0a4.4,4.4,0,0,0-.1-8.9H91.6v8.9A4.4,4.4,0,0,0,100.4,86.2Z"/><path class="cls-27" d="M38.1,46h0a4.4,4.4,0,0,0,0,8.8h8.8s0-8.6,0-8.9A4.4,4.4,0,1,0,38.1,46Z"/><path class="cls-26" d="M9.1,68.6h0a4.4,4.4,0,0,0,8.9-.1V59.8H9.1A4.4,4.4,0,1,0,9.1,68.6Z"/><path class="cls-26" d="M25.7,34.6h0a3.3,3.3,0,0,0,0,6.5h6.5V34.6A3.3,3.3,0,1,0,25.7,34.6Z"/><path class="cls-26" d="M75.8,20h0a3.3,3.3,0,0,0-6.5.1v6.5h6.5A3.3,3.3,0,0,0,75.8,20Z"/><path class="cls-26" d="M95.6,50.7h0a3.3,3.3,0,0,0-6.5.1v6.5h6.5A3.3,3.3,0,0,0,95.6,50.7Z"/><path class="cls-26" d="M35.4,96h0a3.3,3.3,0,0,0,6.5-.1V89.4H35.4A3.3,3.3,0,0,0,35.4,96Z"/><path class="cls-28" d="M92.7,38.5a4.3,4.3,0,1,1-4.3-4.3A4.3,4.3,0,0,1,92.7,38.5Z"/><path class="cls-28" d="M77.3,7.6a3.1,3.1,0,1,1-3.1-3.1A3.1,3.1,0,0,1,77.3,7.6Z"/><path class="cls-28" d="M29.7,99.3a3.1,3.1,0,1,1-3.1-3.1A3.1,3.1,0,0,1,29.7,99.3Z"/><ellipse class="cls-28" cx="36" cy="11.6" rx="5.2" ry="5.3"/><circle class="cls-28" cx="8.2" cy="36.2" r="3.5"/><path class="cls-28" d="M111.2,68a3.5,3.5,0,1,1-3.5-3.6A3.5,3.5,0,0,1,111.2,68Z"/><path class="cls-29" d="M32.8,63.3a1.9,1.9,0,1,1-1.9-1.9A1.9,1.9,0,0,1,32.8,63.3Z"/><path class="cls-25" d="M51.5,108.2s-10.9-2.7-10.8,3.7S51.5,117.6,51.5,108.2Z"/></g></g></svg>