<?xml version="1.0" encoding="utf-8"?>
<!-- Generator: Adobe Illustrator 19.2.1, SVG Export Plug-In . SVG Version: 6.00 Build 0)  -->
<svg version="1.1" id="圖層_1" xmlns="http://www.w3.org/2000/svg" xmlns:xlink="http://www.w3.org/1999/xlink" x="0px" y="0px"
	 viewBox="0 0 32.3 32.3" style="enable-background:new 0 0 32.3 32.3;" xml:space="preserve">
<style type="text/css">
	.st0{fill:#F46C00;}
	.st1{fill:#FFFFFF;}
</style>
<g>
	<path class="st0" d="M29.9,0.1C29.2,0,24.1,0,16.2,0C8,0,3.1,0,2.4,0.1C1.7,0.1,1.1,0.3,0.7,0.7c-0.4,0.4-0.6,1-0.6,1.6
		C0,3,0,8.2,0,16.1s0,13.1,0.1,13.8c0.1,0.7,0.2,1.2,0.6,1.6c0.4,0.4,1,0.6,1.7,0.6c0.7,0.1,5.8,0.1,13.7,0.1s13,0,13.7-0.1
		c0.7-0.1,1.3-0.2,1.7-0.6c0.4-0.4,0.6-1,0.6-1.6c0.1-0.7,0.1-5.9,0.1-13.8s0-13.1-0.1-13.8c-0.1-0.7-0.2-1.2-0.6-1.6
		C31.2,0.3,30.6,0.1,29.9,0.1z"/>
	<path class="st1" d="M22,7.2c-1.2-0.1-2.9-0.1-5.8-0.1s-4.6,0-5.8,0.1C9.1,7.3,8,7.6,7.3,8.4c-0.9,0.8-1.3,1.9-1.4,3.2
		c0,1.3,0,2.1,0,4.2s0,2.9,0,4.2c0,1.3,0.5,2.4,1.4,3.2c0.8,0.7,1.9,1.1,3.1,1.1c1.2,0.1,2.9,0.1,5.8,0.1s4.6-0.1,5.8-0.1
		c1.2-0.1,2.3-0.4,3.1-1.1c0.9-0.8,1.3-1.9,1.4-3.2c0-1.3,0-2.1,0-4.2s0-2.9,0-4.2c0-1.3-0.5-2.4-1.4-3.2C24.3,7.6,23.2,7.3,22,7.2z
		"/>
	<path d="M20.3,10.8h-0.9v6.1h0.9c0.7,0,1-0.5,1-1.1v-3.9C21.3,11.3,21,10.8,20.3,10.8z"/>
	<path d="M14.2,19.9c0.1,1,0.6,1.9,1.9,1.9c1.3,0,1.8-0.9,1.9-1.9H14.2z"/>
	<g>
		<path d="M13,15.9c0,0.5-0.2,1-0.9,1c-0.7,0-0.9-0.5-0.9-1v-5.1H13V15.9z"/>
	</g>
</g>
</svg>
